<mxfile host="65bd71144e">
    <diagram name="Page-1" id="RnoSN_UY9LIXPHD4EfgN">
        <mxGraphModel dx="6580" dy="2716" grid="1" gridSize="10" guides="1" tooltips="1" connect="1" arrows="1" fold="1" page="1" pageScale="1" pageWidth="827" pageHeight="1169" math="0" shadow="0">
            <root>
                <mxCell id="0"/>
                <mxCell id="1" parent="0"/>
                <mxCell id="379" value="" style="edgeStyle=none;html=1;" parent="1" source="71" target="373" edge="1">
                    <mxGeometry relative="1" as="geometry"/>
                </mxCell>
                <mxCell id="71" value="Decoder" style="rounded=0;whiteSpace=wrap;html=1;fillColor=#f8cecc;strokeColor=#b85450;" parent="1" vertex="1">
                    <mxGeometry x="120" y="630" width="120" height="250" as="geometry"/>
                </mxCell>
                <mxCell id="72" value="Issuer" style="rounded=0;whiteSpace=wrap;html=1;fillColor=#fff2cc;strokeColor=#d6b656;" parent="1" vertex="1">
                    <mxGeometry x="360" y="310" width="120" height="890" as="geometry"/>
                </mxCell>
                <mxCell id="73" value="Commiter" style="rounded=0;whiteSpace=wrap;html=1;fillColor=#ffe6cc;strokeColor=#d79b00;" parent="1" vertex="1">
                    <mxGeometry x="920" y="310" width="120" height="890" as="geometry"/>
                </mxCell>
                <mxCell id="75" value="Instruction ROM" style="rounded=0;whiteSpace=wrap;html=1;fillColor=#dae8fc;strokeColor=#6c8ebf;" parent="1" vertex="1">
                    <mxGeometry x="-120" y="630" width="120" height="250" as="geometry"/>
                </mxCell>
                <mxCell id="76" value="Microcode ROM" style="rounded=0;whiteSpace=wrap;html=1;fillColor=#dae8fc;strokeColor=#6c8ebf;" parent="1" vertex="1">
                    <mxGeometry x="-120" y="310" width="120" height="250" as="geometry"/>
                </mxCell>
                <mxCell id="77" value="Register usage tracker" style="rounded=0;whiteSpace=wrap;html=1;fillColor=#fff2cc;strokeColor=#d6b656;" parent="1" vertex="1">
                    <mxGeometry x="560" y="160" width="280" height="80" as="geometry"/>
                </mxCell>
                <mxCell id="78" value="Register file" style="rounded=0;whiteSpace=wrap;html=1;fillColor=#dae8fc;strokeColor=#6c8ebf;" parent="1" vertex="1">
                    <mxGeometry x="560" y="-80" width="280" height="200" as="geometry"/>
                </mxCell>
                <mxCell id="79" value="ALU 0 (Add, Sub, And, Or, Xor...)" style="rounded=0;whiteSpace=wrap;html=1;fillColor=#d5e8d4;strokeColor=#82b366;" parent="1" vertex="1">
                    <mxGeometry x="560" y="320" width="280" height="80" as="geometry"/>
                </mxCell>
                <mxCell id="80" value="ALU 1 (Branches, SLT)" style="rounded=0;whiteSpace=wrap;html=1;fillColor=#d5e8d4;strokeColor=#82b366;" parent="1" vertex="1">
                    <mxGeometry x="560" y="440" width="280" height="80" as="geometry"/>
                </mxCell>
                <mxCell id="81" value="ALU 2 (Mul, div,&amp;nbsp;&lt;span style=&quot;color: rgb(0, 0, 0);&quot;&gt;SLL, SRL, SRA&lt;/span&gt;)" style="rounded=0;whiteSpace=wrap;html=1;fillColor=#d5e8d4;strokeColor=#82b366;" parent="1" vertex="1">
                    <mxGeometry x="560" y="560" width="280" height="80" as="geometry"/>
                </mxCell>
                <mxCell id="82" value="ALU 3&amp;nbsp;&lt;span style=&quot;color: rgb(0, 0, 0);&quot;&gt;(Mul, div,&amp;nbsp;&lt;/span&gt;&lt;span style=&quot;scrollbar-color: rgb(226, 226, 226) rgb(251, 251, 251); color: rgb(0, 0, 0);&quot;&gt;SLL, SRL, SRA&lt;/span&gt;&lt;span style=&quot;color: rgb(0, 0, 0);&quot;&gt;)&lt;/span&gt;" style="rounded=0;whiteSpace=wrap;html=1;fillColor=#d5e8d4;strokeColor=#82b366;" parent="1" vertex="1">
                    <mxGeometry x="560" y="640" width="280" height="80" as="geometry"/>
                </mxCell>
                <mxCell id="83" value="ALU 4 (CRS)" style="rounded=0;whiteSpace=wrap;html=1;fillColor=#f8cecc;strokeColor=#b85450;" parent="1" vertex="1">
                    <mxGeometry x="560" y="760" width="280" height="80" as="geometry"/>
                </mxCell>
                <mxCell id="84" value="CSR Register file" style="rounded=0;whiteSpace=wrap;html=1;fillColor=#f8cecc;strokeColor=#b85450;" parent="1" vertex="1">
                    <mxGeometry x="560" y="880" width="280" height="200" as="geometry"/>
                </mxCell>
                <mxCell id="86" value="ALU 5 (Memory)" style="rounded=0;whiteSpace=wrap;html=1;fillColor=#d5e8d4;strokeColor=#82b366;" parent="1" vertex="1">
                    <mxGeometry x="560" y="1120" width="280" height="80" as="geometry"/>
                </mxCell>
                <mxCell id="88" value="" style="endArrow=classic;html=1;" parent="1" edge="1">
                    <mxGeometry width="50" height="50" relative="1" as="geometry">
                        <mxPoint x="480" y="330" as="sourcePoint"/>
                        <mxPoint x="560" y="330" as="targetPoint"/>
                    </mxGeometry>
                </mxCell>
                <mxCell id="93" value="ARG0" style="edgeLabel;html=1;align=center;verticalAlign=middle;resizable=0;points=[];fontSize=8;" parent="88" vertex="1" connectable="0">
                    <mxGeometry x="-0.1602" relative="1" as="geometry">
                        <mxPoint x="-4" as="offset"/>
                    </mxGeometry>
                </mxCell>
                <mxCell id="89" value="" style="endArrow=classic;html=1;exitX=1.002;exitY=0.022;exitDx=0;exitDy=0;exitPerimeter=0;" parent="1" edge="1">
                    <mxGeometry width="50" height="50" relative="1" as="geometry">
                        <mxPoint x="480" y="340" as="sourcePoint"/>
                        <mxPoint x="560" y="340" as="targetPoint"/>
                    </mxGeometry>
                </mxCell>
                <mxCell id="94" value="ARG1" style="edgeLabel;html=1;align=center;verticalAlign=middle;resizable=0;points=[];fontSize=8;" parent="89" vertex="1" connectable="0">
                    <mxGeometry x="-0.0748" y="1" relative="1" as="geometry">
                        <mxPoint x="-7" as="offset"/>
                    </mxGeometry>
                </mxCell>
                <mxCell id="90" value="" style="endArrow=classic;html=1;" parent="1" edge="1">
                    <mxGeometry width="50" height="50" relative="1" as="geometry">
                        <mxPoint x="480" y="350" as="sourcePoint"/>
                        <mxPoint x="560" y="350" as="targetPoint"/>
                    </mxGeometry>
                </mxCell>
                <mxCell id="95" value="CMD" style="edgeLabel;html=1;align=center;verticalAlign=middle;resizable=0;points=[];fontSize=8;" parent="90" vertex="1" connectable="0">
                    <mxGeometry x="-0.3153" relative="1" as="geometry">
                        <mxPoint x="3" as="offset"/>
                    </mxGeometry>
                </mxCell>
                <mxCell id="91" value="" style="endArrow=classic;html=1;" parent="1" edge="1">
                    <mxGeometry width="50" height="50" relative="1" as="geometry">
                        <mxPoint x="560" y="370" as="sourcePoint"/>
                        <mxPoint x="480" y="370" as="targetPoint"/>
                    </mxGeometry>
                </mxCell>
                <mxCell id="96" value="Busy" style="edgeLabel;html=1;align=center;verticalAlign=middle;resizable=0;points=[];fontSize=8;" parent="91" vertex="1" connectable="0">
                    <mxGeometry x="0.2838" relative="1" as="geometry">
                        <mxPoint as="offset"/>
                    </mxGeometry>
                </mxCell>
                <mxCell id="92" value="" style="endArrow=classic;html=1;exitX=-0.001;exitY=0.625;exitDx=0;exitDy=0;exitPerimeter=0;" parent="1" edge="1">
                    <mxGeometry width="50" height="50" relative="1" as="geometry">
                        <mxPoint x="560" y="380" as="sourcePoint"/>
                        <mxPoint x="480" y="380" as="targetPoint"/>
                    </mxGeometry>
                </mxCell>
                <mxCell id="97" value="Error" style="edgeLabel;html=1;align=center;verticalAlign=middle;resizable=0;points=[];fontSize=8;" parent="92" vertex="1" connectable="0">
                    <mxGeometry x="0.3427" relative="1" as="geometry">
                        <mxPoint x="4" as="offset"/>
                    </mxGeometry>
                </mxCell>
                <mxCell id="148" value="" style="endArrow=classic;html=1;exitX=1.001;exitY=0.127;exitDx=0;exitDy=0;exitPerimeter=0;entryX=0;entryY=0.022;entryDx=0;entryDy=0;entryPerimeter=0;" parent="1" source="79" target="73" edge="1">
                    <mxGeometry width="50" height="50" relative="1" as="geometry">
                        <mxPoint x="870" y="390" as="sourcePoint"/>
                        <mxPoint x="920" y="340" as="targetPoint"/>
                    </mxGeometry>
                </mxCell>
                <mxCell id="203" value="Result" style="edgeLabel;html=1;align=center;verticalAlign=middle;resizable=0;points=[];fontSize=8;" parent="148" vertex="1" connectable="0">
                    <mxGeometry x="0.041" relative="1" as="geometry">
                        <mxPoint x="-2" as="offset"/>
                    </mxGeometry>
                </mxCell>
                <mxCell id="149" value="" style="endArrow=classic;html=1;" parent="1" edge="1">
                    <mxGeometry width="50" height="50" relative="1" as="geometry">
                        <mxPoint x="480" y="450" as="sourcePoint"/>
                        <mxPoint x="560" y="450" as="targetPoint"/>
                    </mxGeometry>
                </mxCell>
                <mxCell id="150" value="ARG0" style="edgeLabel;html=1;align=center;verticalAlign=middle;resizable=0;points=[];fontSize=8;" parent="149" vertex="1" connectable="0">
                    <mxGeometry x="-0.1602" relative="1" as="geometry">
                        <mxPoint x="-4" as="offset"/>
                    </mxGeometry>
                </mxCell>
                <mxCell id="151" value="" style="endArrow=classic;html=1;exitX=1.002;exitY=0.022;exitDx=0;exitDy=0;exitPerimeter=0;" parent="1" edge="1">
                    <mxGeometry width="50" height="50" relative="1" as="geometry">
                        <mxPoint x="480" y="460" as="sourcePoint"/>
                        <mxPoint x="560" y="460" as="targetPoint"/>
                    </mxGeometry>
                </mxCell>
                <mxCell id="152" value="ARG1" style="edgeLabel;html=1;align=center;verticalAlign=middle;resizable=0;points=[];fontSize=8;" parent="151" vertex="1" connectable="0">
                    <mxGeometry x="-0.0748" y="1" relative="1" as="geometry">
                        <mxPoint x="-7" as="offset"/>
                    </mxGeometry>
                </mxCell>
                <mxCell id="153" value="" style="endArrow=classic;html=1;" parent="1" edge="1">
                    <mxGeometry width="50" height="50" relative="1" as="geometry">
                        <mxPoint x="480" y="470" as="sourcePoint"/>
                        <mxPoint x="560" y="470" as="targetPoint"/>
                    </mxGeometry>
                </mxCell>
                <mxCell id="154" value="CMD" style="edgeLabel;html=1;align=center;verticalAlign=middle;resizable=0;points=[];fontSize=8;" parent="153" vertex="1" connectable="0">
                    <mxGeometry x="-0.3153" relative="1" as="geometry">
                        <mxPoint x="3" as="offset"/>
                    </mxGeometry>
                </mxCell>
                <mxCell id="155" value="" style="endArrow=classic;html=1;" parent="1" edge="1">
                    <mxGeometry width="50" height="50" relative="1" as="geometry">
                        <mxPoint x="560" y="490" as="sourcePoint"/>
                        <mxPoint x="480" y="490" as="targetPoint"/>
                    </mxGeometry>
                </mxCell>
                <mxCell id="156" value="Busy" style="edgeLabel;html=1;align=center;verticalAlign=middle;resizable=0;points=[];fontSize=8;" parent="155" vertex="1" connectable="0">
                    <mxGeometry x="0.2838" relative="1" as="geometry">
                        <mxPoint as="offset"/>
                    </mxGeometry>
                </mxCell>
                <mxCell id="157" value="" style="endArrow=classic;html=1;exitX=-0.001;exitY=0.625;exitDx=0;exitDy=0;exitPerimeter=0;" parent="1" edge="1">
                    <mxGeometry width="50" height="50" relative="1" as="geometry">
                        <mxPoint x="560" y="500" as="sourcePoint"/>
                        <mxPoint x="480" y="500" as="targetPoint"/>
                    </mxGeometry>
                </mxCell>
                <mxCell id="158" value="Error" style="edgeLabel;html=1;align=center;verticalAlign=middle;resizable=0;points=[];fontSize=8;" parent="157" vertex="1" connectable="0">
                    <mxGeometry x="0.3427" relative="1" as="geometry">
                        <mxPoint x="4" as="offset"/>
                    </mxGeometry>
                </mxCell>
                <mxCell id="159" value="" style="endArrow=classic;html=1;" parent="1" edge="1">
                    <mxGeometry width="50" height="50" relative="1" as="geometry">
                        <mxPoint x="480" y="570" as="sourcePoint"/>
                        <mxPoint x="560" y="570" as="targetPoint"/>
                    </mxGeometry>
                </mxCell>
                <mxCell id="160" value="ARG0" style="edgeLabel;html=1;align=center;verticalAlign=middle;resizable=0;points=[];fontSize=8;" parent="159" vertex="1" connectable="0">
                    <mxGeometry x="-0.1602" relative="1" as="geometry">
                        <mxPoint x="-4" as="offset"/>
                    </mxGeometry>
                </mxCell>
                <mxCell id="161" value="" style="endArrow=classic;html=1;exitX=1.002;exitY=0.022;exitDx=0;exitDy=0;exitPerimeter=0;" parent="1" edge="1">
                    <mxGeometry width="50" height="50" relative="1" as="geometry">
                        <mxPoint x="480" y="580" as="sourcePoint"/>
                        <mxPoint x="560" y="580" as="targetPoint"/>
                    </mxGeometry>
                </mxCell>
                <mxCell id="162" value="ARG1" style="edgeLabel;html=1;align=center;verticalAlign=middle;resizable=0;points=[];fontSize=8;" parent="161" vertex="1" connectable="0">
                    <mxGeometry x="-0.0748" y="1" relative="1" as="geometry">
                        <mxPoint x="-7" as="offset"/>
                    </mxGeometry>
                </mxCell>
                <mxCell id="163" value="" style="endArrow=classic;html=1;" parent="1" edge="1">
                    <mxGeometry width="50" height="50" relative="1" as="geometry">
                        <mxPoint x="480" y="590" as="sourcePoint"/>
                        <mxPoint x="560" y="590" as="targetPoint"/>
                    </mxGeometry>
                </mxCell>
                <mxCell id="164" value="CMD" style="edgeLabel;html=1;align=center;verticalAlign=middle;resizable=0;points=[];fontSize=8;" parent="163" vertex="1" connectable="0">
                    <mxGeometry x="-0.3153" relative="1" as="geometry">
                        <mxPoint x="3" as="offset"/>
                    </mxGeometry>
                </mxCell>
                <mxCell id="165" value="" style="endArrow=classic;html=1;" parent="1" edge="1">
                    <mxGeometry width="50" height="50" relative="1" as="geometry">
                        <mxPoint x="560" y="610" as="sourcePoint"/>
                        <mxPoint x="480" y="610" as="targetPoint"/>
                    </mxGeometry>
                </mxCell>
                <mxCell id="166" value="Busy" style="edgeLabel;html=1;align=center;verticalAlign=middle;resizable=0;points=[];fontSize=8;" parent="165" vertex="1" connectable="0">
                    <mxGeometry x="0.2838" relative="1" as="geometry">
                        <mxPoint as="offset"/>
                    </mxGeometry>
                </mxCell>
                <mxCell id="167" value="" style="endArrow=classic;html=1;exitX=-0.001;exitY=0.625;exitDx=0;exitDy=0;exitPerimeter=0;" parent="1" edge="1">
                    <mxGeometry width="50" height="50" relative="1" as="geometry">
                        <mxPoint x="560" y="620" as="sourcePoint"/>
                        <mxPoint x="480" y="620" as="targetPoint"/>
                    </mxGeometry>
                </mxCell>
                <mxCell id="168" value="Error" style="edgeLabel;html=1;align=center;verticalAlign=middle;resizable=0;points=[];fontSize=8;" parent="167" vertex="1" connectable="0">
                    <mxGeometry x="0.3427" relative="1" as="geometry">
                        <mxPoint x="4" as="offset"/>
                    </mxGeometry>
                </mxCell>
                <mxCell id="169" value="" style="endArrow=classic;html=1;" parent="1" edge="1">
                    <mxGeometry width="50" height="50" relative="1" as="geometry">
                        <mxPoint x="480" y="650" as="sourcePoint"/>
                        <mxPoint x="560" y="650" as="targetPoint"/>
                    </mxGeometry>
                </mxCell>
                <mxCell id="170" value="ARG0" style="edgeLabel;html=1;align=center;verticalAlign=middle;resizable=0;points=[];fontSize=8;" parent="169" vertex="1" connectable="0">
                    <mxGeometry x="-0.1602" relative="1" as="geometry">
                        <mxPoint x="-4" as="offset"/>
                    </mxGeometry>
                </mxCell>
                <mxCell id="171" value="" style="endArrow=classic;html=1;exitX=1.002;exitY=0.022;exitDx=0;exitDy=0;exitPerimeter=0;" parent="1" edge="1">
                    <mxGeometry width="50" height="50" relative="1" as="geometry">
                        <mxPoint x="480" y="660" as="sourcePoint"/>
                        <mxPoint x="560" y="660" as="targetPoint"/>
                    </mxGeometry>
                </mxCell>
                <mxCell id="172" value="ARG1" style="edgeLabel;html=1;align=center;verticalAlign=middle;resizable=0;points=[];fontSize=8;" parent="171" vertex="1" connectable="0">
                    <mxGeometry x="-0.0748" y="1" relative="1" as="geometry">
                        <mxPoint x="-7" as="offset"/>
                    </mxGeometry>
                </mxCell>
                <mxCell id="173" value="" style="endArrow=classic;html=1;" parent="1" edge="1">
                    <mxGeometry width="50" height="50" relative="1" as="geometry">
                        <mxPoint x="480" y="670" as="sourcePoint"/>
                        <mxPoint x="560" y="670" as="targetPoint"/>
                    </mxGeometry>
                </mxCell>
                <mxCell id="174" value="CMD" style="edgeLabel;html=1;align=center;verticalAlign=middle;resizable=0;points=[];fontSize=8;" parent="173" vertex="1" connectable="0">
                    <mxGeometry x="-0.3153" relative="1" as="geometry">
                        <mxPoint x="3" as="offset"/>
                    </mxGeometry>
                </mxCell>
                <mxCell id="175" value="" style="endArrow=classic;html=1;" parent="1" edge="1">
                    <mxGeometry width="50" height="50" relative="1" as="geometry">
                        <mxPoint x="560" y="690" as="sourcePoint"/>
                        <mxPoint x="480" y="690" as="targetPoint"/>
                    </mxGeometry>
                </mxCell>
                <mxCell id="176" value="Busy" style="edgeLabel;html=1;align=center;verticalAlign=middle;resizable=0;points=[];fontSize=8;" parent="175" vertex="1" connectable="0">
                    <mxGeometry x="0.2838" relative="1" as="geometry">
                        <mxPoint as="offset"/>
                    </mxGeometry>
                </mxCell>
                <mxCell id="177" value="" style="endArrow=classic;html=1;exitX=-0.001;exitY=0.625;exitDx=0;exitDy=0;exitPerimeter=0;" parent="1" edge="1">
                    <mxGeometry width="50" height="50" relative="1" as="geometry">
                        <mxPoint x="560" y="700" as="sourcePoint"/>
                        <mxPoint x="480" y="700" as="targetPoint"/>
                    </mxGeometry>
                </mxCell>
                <mxCell id="178" value="Error" style="edgeLabel;html=1;align=center;verticalAlign=middle;resizable=0;points=[];fontSize=8;" parent="177" vertex="1" connectable="0">
                    <mxGeometry x="0.3427" relative="1" as="geometry">
                        <mxPoint x="4" as="offset"/>
                    </mxGeometry>
                </mxCell>
                <mxCell id="179" value="" style="endArrow=classic;html=1;" parent="1" edge="1">
                    <mxGeometry width="50" height="50" relative="1" as="geometry">
                        <mxPoint x="480" y="770" as="sourcePoint"/>
                        <mxPoint x="560" y="770" as="targetPoint"/>
                    </mxGeometry>
                </mxCell>
                <mxCell id="180" value="ARG0" style="edgeLabel;html=1;align=center;verticalAlign=middle;resizable=0;points=[];fontSize=8;" parent="179" vertex="1" connectable="0">
                    <mxGeometry x="-0.1602" relative="1" as="geometry">
                        <mxPoint x="-4" as="offset"/>
                    </mxGeometry>
                </mxCell>
                <mxCell id="181" value="" style="endArrow=classic;html=1;exitX=1.002;exitY=0.022;exitDx=0;exitDy=0;exitPerimeter=0;" parent="1" edge="1">
                    <mxGeometry width="50" height="50" relative="1" as="geometry">
                        <mxPoint x="480" y="780" as="sourcePoint"/>
                        <mxPoint x="560" y="780" as="targetPoint"/>
                    </mxGeometry>
                </mxCell>
                <mxCell id="182" value="ARG1" style="edgeLabel;html=1;align=center;verticalAlign=middle;resizable=0;points=[];fontSize=8;" parent="181" vertex="1" connectable="0">
                    <mxGeometry x="-0.0748" y="1" relative="1" as="geometry">
                        <mxPoint x="-7" as="offset"/>
                    </mxGeometry>
                </mxCell>
                <mxCell id="183" value="" style="endArrow=classic;html=1;" parent="1" edge="1">
                    <mxGeometry width="50" height="50" relative="1" as="geometry">
                        <mxPoint x="480" y="790" as="sourcePoint"/>
                        <mxPoint x="560" y="790" as="targetPoint"/>
                    </mxGeometry>
                </mxCell>
                <mxCell id="184" value="CMD" style="edgeLabel;html=1;align=center;verticalAlign=middle;resizable=0;points=[];fontSize=8;" parent="183" vertex="1" connectable="0">
                    <mxGeometry x="-0.3153" relative="1" as="geometry">
                        <mxPoint x="3" as="offset"/>
                    </mxGeometry>
                </mxCell>
                <mxCell id="185" value="" style="endArrow=classic;html=1;" parent="1" edge="1">
                    <mxGeometry width="50" height="50" relative="1" as="geometry">
                        <mxPoint x="560" y="810" as="sourcePoint"/>
                        <mxPoint x="480" y="810" as="targetPoint"/>
                    </mxGeometry>
                </mxCell>
                <mxCell id="186" value="Busy" style="edgeLabel;html=1;align=center;verticalAlign=middle;resizable=0;points=[];fontSize=8;" parent="185" vertex="1" connectable="0">
                    <mxGeometry x="0.2838" relative="1" as="geometry">
                        <mxPoint as="offset"/>
                    </mxGeometry>
                </mxCell>
                <mxCell id="187" value="" style="endArrow=classic;html=1;exitX=-0.001;exitY=0.625;exitDx=0;exitDy=0;exitPerimeter=0;" parent="1" edge="1">
                    <mxGeometry width="50" height="50" relative="1" as="geometry">
                        <mxPoint x="560" y="820" as="sourcePoint"/>
                        <mxPoint x="480" y="820" as="targetPoint"/>
                    </mxGeometry>
                </mxCell>
                <mxCell id="188" value="Error" style="edgeLabel;html=1;align=center;verticalAlign=middle;resizable=0;points=[];fontSize=8;" parent="187" vertex="1" connectable="0">
                    <mxGeometry x="0.3427" relative="1" as="geometry">
                        <mxPoint x="4" as="offset"/>
                    </mxGeometry>
                </mxCell>
                <mxCell id="189" value="" style="endArrow=classic;html=1;" parent="1" edge="1">
                    <mxGeometry width="50" height="50" relative="1" as="geometry">
                        <mxPoint x="480" y="1130" as="sourcePoint"/>
                        <mxPoint x="560" y="1130" as="targetPoint"/>
                    </mxGeometry>
                </mxCell>
                <mxCell id="190" value="ARG0" style="edgeLabel;html=1;align=center;verticalAlign=middle;resizable=0;points=[];fontSize=8;" parent="189" vertex="1" connectable="0">
                    <mxGeometry x="-0.1602" relative="1" as="geometry">
                        <mxPoint x="-4" as="offset"/>
                    </mxGeometry>
                </mxCell>
                <mxCell id="191" value="" style="endArrow=classic;html=1;exitX=1.002;exitY=0.022;exitDx=0;exitDy=0;exitPerimeter=0;" parent="1" edge="1">
                    <mxGeometry width="50" height="50" relative="1" as="geometry">
                        <mxPoint x="480" y="1140" as="sourcePoint"/>
                        <mxPoint x="560" y="1140" as="targetPoint"/>
                    </mxGeometry>
                </mxCell>
                <mxCell id="192" value="ARG1" style="edgeLabel;html=1;align=center;verticalAlign=middle;resizable=0;points=[];fontSize=8;" parent="191" vertex="1" connectable="0">
                    <mxGeometry x="-0.0748" y="1" relative="1" as="geometry">
                        <mxPoint x="-7" as="offset"/>
                    </mxGeometry>
                </mxCell>
                <mxCell id="193" value="" style="endArrow=classic;html=1;" parent="1" edge="1">
                    <mxGeometry width="50" height="50" relative="1" as="geometry">
                        <mxPoint x="480" y="1150" as="sourcePoint"/>
                        <mxPoint x="560" y="1150" as="targetPoint"/>
                    </mxGeometry>
                </mxCell>
                <mxCell id="194" value="CMD" style="edgeLabel;html=1;align=center;verticalAlign=middle;resizable=0;points=[];fontSize=8;" parent="193" vertex="1" connectable="0">
                    <mxGeometry x="-0.3153" relative="1" as="geometry">
                        <mxPoint x="3" as="offset"/>
                    </mxGeometry>
                </mxCell>
                <mxCell id="195" value="" style="endArrow=classic;html=1;" parent="1" edge="1">
                    <mxGeometry width="50" height="50" relative="1" as="geometry">
                        <mxPoint x="560" y="1170" as="sourcePoint"/>
                        <mxPoint x="480" y="1170" as="targetPoint"/>
                    </mxGeometry>
                </mxCell>
                <mxCell id="196" value="Busy" style="edgeLabel;html=1;align=center;verticalAlign=middle;resizable=0;points=[];fontSize=8;" parent="195" vertex="1" connectable="0">
                    <mxGeometry x="0.2838" relative="1" as="geometry">
                        <mxPoint as="offset"/>
                    </mxGeometry>
                </mxCell>
                <mxCell id="197" value="" style="endArrow=classic;html=1;exitX=-0.001;exitY=0.625;exitDx=0;exitDy=0;exitPerimeter=0;" parent="1" edge="1">
                    <mxGeometry width="50" height="50" relative="1" as="geometry">
                        <mxPoint x="560" y="1180" as="sourcePoint"/>
                        <mxPoint x="480" y="1180" as="targetPoint"/>
                    </mxGeometry>
                </mxCell>
                <mxCell id="198" value="Error" style="edgeLabel;html=1;align=center;verticalAlign=middle;resizable=0;points=[];fontSize=8;" parent="197" vertex="1" connectable="0">
                    <mxGeometry x="0.3427" relative="1" as="geometry">
                        <mxPoint x="4" as="offset"/>
                    </mxGeometry>
                </mxCell>
                <mxCell id="199" value="" style="endArrow=classic;html=1;exitX=1.001;exitY=0.127;exitDx=0;exitDy=0;exitPerimeter=0;entryX=0;entryY=0.022;entryDx=0;entryDy=0;entryPerimeter=0;" parent="1" edge="1">
                    <mxGeometry width="50" height="50" relative="1" as="geometry">
                        <mxPoint x="840" y="340" as="sourcePoint"/>
                        <mxPoint x="920" y="340" as="targetPoint"/>
                    </mxGeometry>
                </mxCell>
                <mxCell id="204" value="Valid" style="edgeLabel;html=1;align=center;verticalAlign=middle;resizable=0;points=[];fontSize=8;" parent="199" vertex="1" connectable="0">
                    <mxGeometry x="-0.0887" relative="1" as="geometry">
                        <mxPoint x="4" as="offset"/>
                    </mxGeometry>
                </mxCell>
                <mxCell id="200" value="" style="endArrow=classic;html=1;exitX=1.001;exitY=0.127;exitDx=0;exitDy=0;exitPerimeter=0;entryX=0;entryY=0.022;entryDx=0;entryDy=0;entryPerimeter=0;" parent="1" edge="1">
                    <mxGeometry width="50" height="50" relative="1" as="geometry">
                        <mxPoint x="840" y="350" as="sourcePoint"/>
                        <mxPoint x="920" y="350" as="targetPoint"/>
                    </mxGeometry>
                </mxCell>
                <mxCell id="205" value="Err" style="edgeLabel;html=1;align=center;verticalAlign=middle;resizable=0;points=[];fontSize=8;" parent="200" vertex="1" connectable="0">
                    <mxGeometry x="-0.1169" y="1" relative="1" as="geometry">
                        <mxPoint x="5" as="offset"/>
                    </mxGeometry>
                </mxCell>
                <mxCell id="201" value="" style="endArrow=classic;html=1;exitX=1.001;exitY=0.127;exitDx=0;exitDy=0;exitPerimeter=0;entryX=0;entryY=0.022;entryDx=0;entryDy=0;entryPerimeter=0;" parent="1" edge="1">
                    <mxGeometry width="50" height="50" relative="1" as="geometry">
                        <mxPoint x="840" y="359.93" as="sourcePoint"/>
                        <mxPoint x="920" y="359.93" as="targetPoint"/>
                    </mxGeometry>
                </mxCell>
                <mxCell id="206" value="Req" style="edgeLabel;html=1;align=center;verticalAlign=middle;resizable=0;points=[];fontSize=8;" parent="201" vertex="1" connectable="0">
                    <mxGeometry x="-0.0645" relative="1" as="geometry">
                        <mxPoint x="3" as="offset"/>
                    </mxGeometry>
                </mxCell>
                <mxCell id="202" value="" style="endArrow=classic;html=1;" parent="1" edge="1">
                    <mxGeometry width="50" height="50" relative="1" as="geometry">
                        <mxPoint x="920" y="380" as="sourcePoint"/>
                        <mxPoint x="840" y="380" as="targetPoint"/>
                    </mxGeometry>
                </mxCell>
                <mxCell id="207" value="Clear" style="edgeLabel;html=1;align=center;verticalAlign=middle;resizable=0;points=[];fontSize=8;" parent="202" vertex="1" connectable="0">
                    <mxGeometry x="0.0484" y="-1" relative="1" as="geometry">
                        <mxPoint x="2" as="offset"/>
                    </mxGeometry>
                </mxCell>
                <mxCell id="208" value="" style="endArrow=classic;html=1;exitX=1.001;exitY=0.127;exitDx=0;exitDy=0;exitPerimeter=0;entryX=0;entryY=0.022;entryDx=0;entryDy=0;entryPerimeter=0;" parent="1" edge="1">
                    <mxGeometry width="50" height="50" relative="1" as="geometry">
                        <mxPoint x="840" y="450" as="sourcePoint"/>
                        <mxPoint x="920" y="450" as="targetPoint"/>
                    </mxGeometry>
                </mxCell>
                <mxCell id="209" value="Result" style="edgeLabel;html=1;align=center;verticalAlign=middle;resizable=0;points=[];fontSize=8;" parent="208" vertex="1" connectable="0">
                    <mxGeometry x="0.041" relative="1" as="geometry">
                        <mxPoint x="-2" as="offset"/>
                    </mxGeometry>
                </mxCell>
                <mxCell id="210" value="" style="endArrow=classic;html=1;exitX=1.001;exitY=0.127;exitDx=0;exitDy=0;exitPerimeter=0;entryX=0;entryY=0.022;entryDx=0;entryDy=0;entryPerimeter=0;" parent="1" edge="1">
                    <mxGeometry width="50" height="50" relative="1" as="geometry">
                        <mxPoint x="840" y="460" as="sourcePoint"/>
                        <mxPoint x="920" y="460" as="targetPoint"/>
                    </mxGeometry>
                </mxCell>
                <mxCell id="211" value="Valid" style="edgeLabel;html=1;align=center;verticalAlign=middle;resizable=0;points=[];fontSize=8;" parent="210" vertex="1" connectable="0">
                    <mxGeometry x="-0.0887" relative="1" as="geometry">
                        <mxPoint x="4" as="offset"/>
                    </mxGeometry>
                </mxCell>
                <mxCell id="212" value="" style="endArrow=classic;html=1;exitX=1.001;exitY=0.127;exitDx=0;exitDy=0;exitPerimeter=0;entryX=0;entryY=0.022;entryDx=0;entryDy=0;entryPerimeter=0;" parent="1" edge="1">
                    <mxGeometry width="50" height="50" relative="1" as="geometry">
                        <mxPoint x="840" y="470" as="sourcePoint"/>
                        <mxPoint x="920" y="470" as="targetPoint"/>
                    </mxGeometry>
                </mxCell>
                <mxCell id="213" value="Err" style="edgeLabel;html=1;align=center;verticalAlign=middle;resizable=0;points=[];fontSize=8;" parent="212" vertex="1" connectable="0">
                    <mxGeometry x="-0.1169" y="1" relative="1" as="geometry">
                        <mxPoint x="5" as="offset"/>
                    </mxGeometry>
                </mxCell>
                <mxCell id="214" value="" style="endArrow=classic;html=1;exitX=1.001;exitY=0.127;exitDx=0;exitDy=0;exitPerimeter=0;entryX=0;entryY=0.022;entryDx=0;entryDy=0;entryPerimeter=0;" parent="1" edge="1">
                    <mxGeometry width="50" height="50" relative="1" as="geometry">
                        <mxPoint x="840" y="479.93" as="sourcePoint"/>
                        <mxPoint x="920" y="479.93" as="targetPoint"/>
                    </mxGeometry>
                </mxCell>
                <mxCell id="215" value="Req" style="edgeLabel;html=1;align=center;verticalAlign=middle;resizable=0;points=[];fontSize=8;" parent="214" vertex="1" connectable="0">
                    <mxGeometry x="-0.0645" relative="1" as="geometry">
                        <mxPoint x="3" as="offset"/>
                    </mxGeometry>
                </mxCell>
                <mxCell id="216" value="" style="endArrow=classic;html=1;" parent="1" edge="1">
                    <mxGeometry width="50" height="50" relative="1" as="geometry">
                        <mxPoint x="920" y="500" as="sourcePoint"/>
                        <mxPoint x="840" y="500" as="targetPoint"/>
                    </mxGeometry>
                </mxCell>
                <mxCell id="217" value="Clear" style="edgeLabel;html=1;align=center;verticalAlign=middle;resizable=0;points=[];fontSize=8;" parent="216" vertex="1" connectable="0">
                    <mxGeometry x="0.0484" y="-1" relative="1" as="geometry">
                        <mxPoint x="2" as="offset"/>
                    </mxGeometry>
                </mxCell>
                <mxCell id="218" value="" style="endArrow=classic;html=1;exitX=1.001;exitY=0.127;exitDx=0;exitDy=0;exitPerimeter=0;entryX=0;entryY=0.022;entryDx=0;entryDy=0;entryPerimeter=0;" parent="1" edge="1">
                    <mxGeometry width="50" height="50" relative="1" as="geometry">
                        <mxPoint x="840" y="570" as="sourcePoint"/>
                        <mxPoint x="920" y="570" as="targetPoint"/>
                    </mxGeometry>
                </mxCell>
                <mxCell id="219" value="Result" style="edgeLabel;html=1;align=center;verticalAlign=middle;resizable=0;points=[];fontSize=8;" parent="218" vertex="1" connectable="0">
                    <mxGeometry x="0.041" relative="1" as="geometry">
                        <mxPoint x="-2" as="offset"/>
                    </mxGeometry>
                </mxCell>
                <mxCell id="220" value="" style="endArrow=classic;html=1;exitX=1.001;exitY=0.127;exitDx=0;exitDy=0;exitPerimeter=0;entryX=0;entryY=0.022;entryDx=0;entryDy=0;entryPerimeter=0;" parent="1" edge="1">
                    <mxGeometry width="50" height="50" relative="1" as="geometry">
                        <mxPoint x="840" y="580" as="sourcePoint"/>
                        <mxPoint x="920" y="580" as="targetPoint"/>
                    </mxGeometry>
                </mxCell>
                <mxCell id="221" value="Valid" style="edgeLabel;html=1;align=center;verticalAlign=middle;resizable=0;points=[];fontSize=8;" parent="220" vertex="1" connectable="0">
                    <mxGeometry x="-0.0887" relative="1" as="geometry">
                        <mxPoint x="4" as="offset"/>
                    </mxGeometry>
                </mxCell>
                <mxCell id="222" value="" style="endArrow=classic;html=1;exitX=1.001;exitY=0.127;exitDx=0;exitDy=0;exitPerimeter=0;entryX=0;entryY=0.022;entryDx=0;entryDy=0;entryPerimeter=0;" parent="1" edge="1">
                    <mxGeometry width="50" height="50" relative="1" as="geometry">
                        <mxPoint x="840" y="590" as="sourcePoint"/>
                        <mxPoint x="920" y="590" as="targetPoint"/>
                    </mxGeometry>
                </mxCell>
                <mxCell id="223" value="Err" style="edgeLabel;html=1;align=center;verticalAlign=middle;resizable=0;points=[];fontSize=8;" parent="222" vertex="1" connectable="0">
                    <mxGeometry x="-0.1169" y="1" relative="1" as="geometry">
                        <mxPoint x="5" as="offset"/>
                    </mxGeometry>
                </mxCell>
                <mxCell id="224" value="" style="endArrow=classic;html=1;exitX=1.001;exitY=0.127;exitDx=0;exitDy=0;exitPerimeter=0;entryX=0;entryY=0.022;entryDx=0;entryDy=0;entryPerimeter=0;" parent="1" edge="1">
                    <mxGeometry width="50" height="50" relative="1" as="geometry">
                        <mxPoint x="840" y="599.9300000000001" as="sourcePoint"/>
                        <mxPoint x="920" y="599.9300000000001" as="targetPoint"/>
                    </mxGeometry>
                </mxCell>
                <mxCell id="225" value="Req" style="edgeLabel;html=1;align=center;verticalAlign=middle;resizable=0;points=[];fontSize=8;" parent="224" vertex="1" connectable="0">
                    <mxGeometry x="-0.0645" relative="1" as="geometry">
                        <mxPoint x="3" as="offset"/>
                    </mxGeometry>
                </mxCell>
                <mxCell id="226" value="" style="endArrow=classic;html=1;" parent="1" edge="1">
                    <mxGeometry width="50" height="50" relative="1" as="geometry">
                        <mxPoint x="920" y="620" as="sourcePoint"/>
                        <mxPoint x="840" y="620" as="targetPoint"/>
                    </mxGeometry>
                </mxCell>
                <mxCell id="227" value="Clear" style="edgeLabel;html=1;align=center;verticalAlign=middle;resizable=0;points=[];fontSize=8;" parent="226" vertex="1" connectable="0">
                    <mxGeometry x="0.0484" y="-1" relative="1" as="geometry">
                        <mxPoint x="2" as="offset"/>
                    </mxGeometry>
                </mxCell>
                <mxCell id="228" value="" style="endArrow=classic;html=1;exitX=1.001;exitY=0.127;exitDx=0;exitDy=0;exitPerimeter=0;entryX=0;entryY=0.022;entryDx=0;entryDy=0;entryPerimeter=0;" parent="1" edge="1">
                    <mxGeometry width="50" height="50" relative="1" as="geometry">
                        <mxPoint x="840" y="650" as="sourcePoint"/>
                        <mxPoint x="920" y="650" as="targetPoint"/>
                    </mxGeometry>
                </mxCell>
                <mxCell id="229" value="Result" style="edgeLabel;html=1;align=center;verticalAlign=middle;resizable=0;points=[];fontSize=8;" parent="228" vertex="1" connectable="0">
                    <mxGeometry x="0.041" relative="1" as="geometry">
                        <mxPoint x="-2" as="offset"/>
                    </mxGeometry>
                </mxCell>
                <mxCell id="230" value="" style="endArrow=classic;html=1;exitX=1.001;exitY=0.127;exitDx=0;exitDy=0;exitPerimeter=0;entryX=0;entryY=0.022;entryDx=0;entryDy=0;entryPerimeter=0;" parent="1" edge="1">
                    <mxGeometry width="50" height="50" relative="1" as="geometry">
                        <mxPoint x="840" y="660" as="sourcePoint"/>
                        <mxPoint x="920" y="660" as="targetPoint"/>
                    </mxGeometry>
                </mxCell>
                <mxCell id="231" value="Valid" style="edgeLabel;html=1;align=center;verticalAlign=middle;resizable=0;points=[];fontSize=8;" parent="230" vertex="1" connectable="0">
                    <mxGeometry x="-0.0887" relative="1" as="geometry">
                        <mxPoint x="4" as="offset"/>
                    </mxGeometry>
                </mxCell>
                <mxCell id="232" value="" style="endArrow=classic;html=1;exitX=1.001;exitY=0.127;exitDx=0;exitDy=0;exitPerimeter=0;entryX=0;entryY=0.022;entryDx=0;entryDy=0;entryPerimeter=0;" parent="1" edge="1">
                    <mxGeometry width="50" height="50" relative="1" as="geometry">
                        <mxPoint x="840" y="670" as="sourcePoint"/>
                        <mxPoint x="920" y="670" as="targetPoint"/>
                    </mxGeometry>
                </mxCell>
                <mxCell id="233" value="Err" style="edgeLabel;html=1;align=center;verticalAlign=middle;resizable=0;points=[];fontSize=8;" parent="232" vertex="1" connectable="0">
                    <mxGeometry x="-0.1169" y="1" relative="1" as="geometry">
                        <mxPoint x="5" as="offset"/>
                    </mxGeometry>
                </mxCell>
                <mxCell id="234" value="" style="endArrow=classic;html=1;exitX=1.001;exitY=0.127;exitDx=0;exitDy=0;exitPerimeter=0;entryX=0;entryY=0.022;entryDx=0;entryDy=0;entryPerimeter=0;" parent="1" edge="1">
                    <mxGeometry width="50" height="50" relative="1" as="geometry">
                        <mxPoint x="840" y="679.9300000000001" as="sourcePoint"/>
                        <mxPoint x="920" y="679.9300000000001" as="targetPoint"/>
                    </mxGeometry>
                </mxCell>
                <mxCell id="235" value="Req" style="edgeLabel;html=1;align=center;verticalAlign=middle;resizable=0;points=[];fontSize=8;" parent="234" vertex="1" connectable="0">
                    <mxGeometry x="-0.0645" relative="1" as="geometry">
                        <mxPoint x="3" as="offset"/>
                    </mxGeometry>
                </mxCell>
                <mxCell id="236" value="" style="endArrow=classic;html=1;" parent="1" edge="1">
                    <mxGeometry width="50" height="50" relative="1" as="geometry">
                        <mxPoint x="920" y="700" as="sourcePoint"/>
                        <mxPoint x="840" y="700" as="targetPoint"/>
                    </mxGeometry>
                </mxCell>
                <mxCell id="237" value="Clear" style="edgeLabel;html=1;align=center;verticalAlign=middle;resizable=0;points=[];fontSize=8;" parent="236" vertex="1" connectable="0">
                    <mxGeometry x="0.0484" y="-1" relative="1" as="geometry">
                        <mxPoint x="2" as="offset"/>
                    </mxGeometry>
                </mxCell>
                <mxCell id="238" value="" style="endArrow=classic;html=1;exitX=1.001;exitY=0.127;exitDx=0;exitDy=0;exitPerimeter=0;entryX=0;entryY=0.022;entryDx=0;entryDy=0;entryPerimeter=0;" parent="1" edge="1">
                    <mxGeometry width="50" height="50" relative="1" as="geometry">
                        <mxPoint x="840" y="770" as="sourcePoint"/>
                        <mxPoint x="920" y="770" as="targetPoint"/>
                    </mxGeometry>
                </mxCell>
                <mxCell id="239" value="Result" style="edgeLabel;html=1;align=center;verticalAlign=middle;resizable=0;points=[];fontSize=8;" parent="238" vertex="1" connectable="0">
                    <mxGeometry x="0.041" relative="1" as="geometry">
                        <mxPoint x="-2" as="offset"/>
                    </mxGeometry>
                </mxCell>
                <mxCell id="240" value="" style="endArrow=classic;html=1;exitX=1.001;exitY=0.127;exitDx=0;exitDy=0;exitPerimeter=0;entryX=0;entryY=0.022;entryDx=0;entryDy=0;entryPerimeter=0;" parent="1" edge="1">
                    <mxGeometry width="50" height="50" relative="1" as="geometry">
                        <mxPoint x="840" y="780" as="sourcePoint"/>
                        <mxPoint x="920" y="780" as="targetPoint"/>
                    </mxGeometry>
                </mxCell>
                <mxCell id="241" value="Valid" style="edgeLabel;html=1;align=center;verticalAlign=middle;resizable=0;points=[];fontSize=8;" parent="240" vertex="1" connectable="0">
                    <mxGeometry x="-0.0887" relative="1" as="geometry">
                        <mxPoint x="4" as="offset"/>
                    </mxGeometry>
                </mxCell>
                <mxCell id="242" value="" style="endArrow=classic;html=1;exitX=1.001;exitY=0.127;exitDx=0;exitDy=0;exitPerimeter=0;entryX=0;entryY=0.022;entryDx=0;entryDy=0;entryPerimeter=0;" parent="1" edge="1">
                    <mxGeometry width="50" height="50" relative="1" as="geometry">
                        <mxPoint x="840" y="790" as="sourcePoint"/>
                        <mxPoint x="920" y="790" as="targetPoint"/>
                    </mxGeometry>
                </mxCell>
                <mxCell id="243" value="Err" style="edgeLabel;html=1;align=center;verticalAlign=middle;resizable=0;points=[];fontSize=8;" parent="242" vertex="1" connectable="0">
                    <mxGeometry x="-0.1169" y="1" relative="1" as="geometry">
                        <mxPoint x="5" as="offset"/>
                    </mxGeometry>
                </mxCell>
                <mxCell id="244" value="" style="endArrow=classic;html=1;exitX=1.001;exitY=0.127;exitDx=0;exitDy=0;exitPerimeter=0;entryX=0;entryY=0.022;entryDx=0;entryDy=0;entryPerimeter=0;" parent="1" edge="1">
                    <mxGeometry width="50" height="50" relative="1" as="geometry">
                        <mxPoint x="840" y="799.9300000000001" as="sourcePoint"/>
                        <mxPoint x="920" y="799.9300000000001" as="targetPoint"/>
                    </mxGeometry>
                </mxCell>
                <mxCell id="245" value="Req" style="edgeLabel;html=1;align=center;verticalAlign=middle;resizable=0;points=[];fontSize=8;" parent="244" vertex="1" connectable="0">
                    <mxGeometry x="-0.0645" relative="1" as="geometry">
                        <mxPoint x="3" as="offset"/>
                    </mxGeometry>
                </mxCell>
                <mxCell id="246" value="" style="endArrow=classic;html=1;" parent="1" edge="1">
                    <mxGeometry width="50" height="50" relative="1" as="geometry">
                        <mxPoint x="920" y="820" as="sourcePoint"/>
                        <mxPoint x="840" y="820" as="targetPoint"/>
                    </mxGeometry>
                </mxCell>
                <mxCell id="247" value="Clear" style="edgeLabel;html=1;align=center;verticalAlign=middle;resizable=0;points=[];fontSize=8;" parent="246" vertex="1" connectable="0">
                    <mxGeometry x="0.0484" y="-1" relative="1" as="geometry">
                        <mxPoint x="2" as="offset"/>
                    </mxGeometry>
                </mxCell>
                <mxCell id="248" value="" style="endArrow=classic;html=1;exitX=1.001;exitY=0.127;exitDx=0;exitDy=0;exitPerimeter=0;entryX=0;entryY=0.022;entryDx=0;entryDy=0;entryPerimeter=0;" parent="1" edge="1">
                    <mxGeometry width="50" height="50" relative="1" as="geometry">
                        <mxPoint x="840" y="1130" as="sourcePoint"/>
                        <mxPoint x="920" y="1130" as="targetPoint"/>
                    </mxGeometry>
                </mxCell>
                <mxCell id="249" value="Result" style="edgeLabel;html=1;align=center;verticalAlign=middle;resizable=0;points=[];fontSize=8;" parent="248" vertex="1" connectable="0">
                    <mxGeometry x="0.041" relative="1" as="geometry">
                        <mxPoint x="-2" as="offset"/>
                    </mxGeometry>
                </mxCell>
                <mxCell id="250" value="" style="endArrow=classic;html=1;exitX=1.001;exitY=0.127;exitDx=0;exitDy=0;exitPerimeter=0;entryX=0;entryY=0.022;entryDx=0;entryDy=0;entryPerimeter=0;" parent="1" edge="1">
                    <mxGeometry width="50" height="50" relative="1" as="geometry">
                        <mxPoint x="840" y="1140" as="sourcePoint"/>
                        <mxPoint x="920" y="1140" as="targetPoint"/>
                    </mxGeometry>
                </mxCell>
                <mxCell id="251" value="Valid" style="edgeLabel;html=1;align=center;verticalAlign=middle;resizable=0;points=[];fontSize=8;" parent="250" vertex="1" connectable="0">
                    <mxGeometry x="-0.0887" relative="1" as="geometry">
                        <mxPoint x="4" as="offset"/>
                    </mxGeometry>
                </mxCell>
                <mxCell id="252" value="" style="endArrow=classic;html=1;exitX=1.001;exitY=0.127;exitDx=0;exitDy=0;exitPerimeter=0;entryX=0;entryY=0.022;entryDx=0;entryDy=0;entryPerimeter=0;" parent="1" edge="1">
                    <mxGeometry width="50" height="50" relative="1" as="geometry">
                        <mxPoint x="840" y="1150" as="sourcePoint"/>
                        <mxPoint x="920" y="1150" as="targetPoint"/>
                    </mxGeometry>
                </mxCell>
                <mxCell id="253" value="Err" style="edgeLabel;html=1;align=center;verticalAlign=middle;resizable=0;points=[];fontSize=8;" parent="252" vertex="1" connectable="0">
                    <mxGeometry x="-0.1169" y="1" relative="1" as="geometry">
                        <mxPoint x="5" as="offset"/>
                    </mxGeometry>
                </mxCell>
                <mxCell id="254" value="" style="endArrow=classic;html=1;exitX=1.001;exitY=0.127;exitDx=0;exitDy=0;exitPerimeter=0;entryX=0;entryY=0.022;entryDx=0;entryDy=0;entryPerimeter=0;" parent="1" edge="1">
                    <mxGeometry width="50" height="50" relative="1" as="geometry">
                        <mxPoint x="840" y="1159.93" as="sourcePoint"/>
                        <mxPoint x="920" y="1159.93" as="targetPoint"/>
                    </mxGeometry>
                </mxCell>
                <mxCell id="255" value="Req" style="edgeLabel;html=1;align=center;verticalAlign=middle;resizable=0;points=[];fontSize=8;" parent="254" vertex="1" connectable="0">
                    <mxGeometry x="-0.0645" relative="1" as="geometry">
                        <mxPoint x="3" as="offset"/>
                    </mxGeometry>
                </mxCell>
                <mxCell id="256" value="" style="endArrow=classic;html=1;" parent="1" edge="1">
                    <mxGeometry width="50" height="50" relative="1" as="geometry">
                        <mxPoint x="920" y="1180" as="sourcePoint"/>
                        <mxPoint x="840" y="1180" as="targetPoint"/>
                    </mxGeometry>
                </mxCell>
                <mxCell id="257" value="Clear" style="edgeLabel;html=1;align=center;verticalAlign=middle;resizable=0;points=[];fontSize=8;" parent="256" vertex="1" connectable="0">
                    <mxGeometry x="0.0484" y="-1" relative="1" as="geometry">
                        <mxPoint x="2" as="offset"/>
                    </mxGeometry>
                </mxCell>
                <mxCell id="258" value="" style="endArrow=classic;html=1;" parent="1" edge="1">
                    <mxGeometry width="50" height="50" relative="1" as="geometry">
                        <mxPoint x="240" y="740" as="sourcePoint"/>
                        <mxPoint x="360" y="740" as="targetPoint"/>
                    </mxGeometry>
                </mxCell>
                <mxCell id="279" value="Immediate" style="edgeLabel;html=1;align=center;verticalAlign=middle;resizable=0;points=[];fontSize=8;" parent="258" vertex="1" connectable="0">
                    <mxGeometry x="-0.119" relative="1" as="geometry">
                        <mxPoint x="7" as="offset"/>
                    </mxGeometry>
                </mxCell>
                <mxCell id="269" value="" style="endArrow=classic;html=1;" parent="1" edge="1">
                    <mxGeometry width="50" height="50" relative="1" as="geometry">
                        <mxPoint x="240" y="770" as="sourcePoint"/>
                        <mxPoint x="360" y="770" as="targetPoint"/>
                    </mxGeometry>
                </mxCell>
                <mxCell id="280" value="RS1" style="edgeLabel;html=1;align=center;verticalAlign=middle;resizable=0;points=[];fontSize=8;" parent="269" vertex="1" connectable="0">
                    <mxGeometry x="-0.0117" y="1" relative="1" as="geometry">
                        <mxPoint as="offset"/>
                    </mxGeometry>
                </mxCell>
                <mxCell id="270" value="" style="endArrow=classic;html=1;" parent="1" edge="1">
                    <mxGeometry width="50" height="50" relative="1" as="geometry">
                        <mxPoint x="240" y="720" as="sourcePoint"/>
                        <mxPoint x="360" y="720" as="targetPoint"/>
                    </mxGeometry>
                </mxCell>
                <mxCell id="278" value="Opcode" style="edgeLabel;html=1;align=center;verticalAlign=middle;resizable=0;points=[];fontSize=8;" parent="270" vertex="1" connectable="0">
                    <mxGeometry x="-0.0556" relative="1" as="geometry">
                        <mxPoint x="3" as="offset"/>
                    </mxGeometry>
                </mxCell>
                <mxCell id="271" value="" style="endArrow=classic;html=1;" parent="1" edge="1">
                    <mxGeometry width="50" height="50" relative="1" as="geometry">
                        <mxPoint x="240" y="790" as="sourcePoint"/>
                        <mxPoint x="360" y="790" as="targetPoint"/>
                    </mxGeometry>
                </mxCell>
                <mxCell id="281" value="RS2" style="edgeLabel;html=1;align=center;verticalAlign=middle;resizable=0;points=[];fontSize=8;" parent="271" vertex="1" connectable="0">
                    <mxGeometry x="0.0151" y="1" relative="1" as="geometry">
                        <mxPoint as="offset"/>
                    </mxGeometry>
                </mxCell>
                <mxCell id="272" value="" style="endArrow=classic;html=1;" parent="1" edge="1">
                    <mxGeometry width="50" height="50" relative="1" as="geometry">
                        <mxPoint x="240" y="810" as="sourcePoint"/>
                        <mxPoint x="360" y="810" as="targetPoint"/>
                    </mxGeometry>
                </mxCell>
                <mxCell id="282" value="RD" style="edgeLabel;html=1;align=center;verticalAlign=middle;resizable=0;points=[];fontSize=8;" parent="272" vertex="1" connectable="0">
                    <mxGeometry x="-0.0653" relative="1" as="geometry">
                        <mxPoint x="4" as="offset"/>
                    </mxGeometry>
                </mxCell>
                <mxCell id="273" value="" style="endArrow=classic;html=1;" parent="1" edge="1">
                    <mxGeometry width="50" height="50" relative="1" as="geometry">
                        <mxPoint x="240" y="830" as="sourcePoint"/>
                        <mxPoint x="360" y="830" as="targetPoint"/>
                    </mxGeometry>
                </mxCell>
                <mxCell id="283" value="Address" style="edgeLabel;html=1;align=center;verticalAlign=middle;resizable=0;points=[];fontSize=8;" parent="273" vertex="1" connectable="0">
                    <mxGeometry x="-0.0692" y="1" relative="1" as="geometry">
                        <mxPoint x="4" as="offset"/>
                    </mxGeometry>
                </mxCell>
                <mxCell id="274" value="" style="endArrow=classic;html=1;" parent="1" edge="1">
                    <mxGeometry width="50" height="50" relative="1" as="geometry">
                        <mxPoint x="240" y="700" as="sourcePoint"/>
                        <mxPoint x="360" y="700" as="targetPoint"/>
                    </mxGeometry>
                </mxCell>
                <mxCell id="277" value="illegal" style="edgeLabel;html=1;align=center;verticalAlign=middle;resizable=0;points=[];fontSize=8;" parent="274" vertex="1" connectable="0">
                    <mxGeometry x="-0.0556" y="1" relative="1" as="geometry">
                        <mxPoint x="3" as="offset"/>
                    </mxGeometry>
                </mxCell>
                <mxCell id="275" value="" style="endArrow=classic;html=1;" parent="1" edge="1">
                    <mxGeometry width="50" height="50" relative="1" as="geometry">
                        <mxPoint x="360" y="870" as="sourcePoint"/>
                        <mxPoint x="240" y="870" as="targetPoint"/>
                    </mxGeometry>
                </mxCell>
                <mxCell id="381" value="Busy" style="edgeLabel;html=1;align=center;verticalAlign=middle;resizable=0;points=[];fontSize=8;" parent="275" vertex="1" connectable="0">
                    <mxGeometry x="0.3649" y="3" relative="1" as="geometry">
                        <mxPoint x="22" y="-3" as="offset"/>
                    </mxGeometry>
                </mxCell>
                <mxCell id="284" value="" style="endArrow=classic;html=1;" parent="1" edge="1">
                    <mxGeometry width="50" height="50" relative="1" as="geometry">
                        <mxPoint y="750" as="sourcePoint"/>
                        <mxPoint x="120" y="750" as="targetPoint"/>
                    </mxGeometry>
                </mxCell>
                <mxCell id="285" value="Instruction" style="edgeLabel;html=1;align=center;verticalAlign=middle;resizable=0;points=[];fontSize=8;" parent="284" vertex="1" connectable="0">
                    <mxGeometry x="-0.0556" relative="1" as="geometry">
                        <mxPoint x="3" as="offset"/>
                    </mxGeometry>
                </mxCell>
                <mxCell id="286" value="" style="endArrow=classic;html=1;entryX=0;entryY=0.24;entryDx=0;entryDy=0;entryPerimeter=0;" parent="1" target="71" edge="1">
                    <mxGeometry width="50" height="50" relative="1" as="geometry">
                        <mxPoint y="430" as="sourcePoint"/>
                        <mxPoint x="120" y="430" as="targetPoint"/>
                        <Array as="points">
                            <mxPoint x="60" y="430"/>
                            <mxPoint x="60" y="690"/>
                        </Array>
                    </mxGeometry>
                </mxCell>
                <mxCell id="287" value="Instruction" style="edgeLabel;html=1;align=center;verticalAlign=middle;resizable=0;points=[];fontSize=8;" parent="286" vertex="1" connectable="0">
                    <mxGeometry x="-0.0556" relative="1" as="geometry">
                        <mxPoint x="-30" y="-119" as="offset"/>
                    </mxGeometry>
                </mxCell>
                <mxCell id="288" value="" style="endArrow=classic;html=1;entryX=0;entryY=0.875;entryDx=0;entryDy=0;entryPerimeter=0;exitX=0.75;exitY=0;exitDx=0;exitDy=0;" parent="1" target="77" edge="1" source="72">
                    <mxGeometry width="50" height="50" relative="1" as="geometry">
                        <mxPoint x="470" y="310" as="sourcePoint"/>
                        <mxPoint x="520" y="260" as="targetPoint"/>
                        <Array as="points">
                            <mxPoint x="450" y="230"/>
                        </Array>
                    </mxGeometry>
                </mxCell>
                <mxCell id="293" value="Reg2" style="edgeLabel;html=1;align=center;verticalAlign=middle;resizable=0;points=[];fontSize=8;" parent="288" vertex="1" connectable="0">
                    <mxGeometry x="0.3712" y="-1" relative="1" as="geometry">
                        <mxPoint x="14" as="offset"/>
                    </mxGeometry>
                </mxCell>
                <mxCell id="290" value="" style="endArrow=classic;html=1;entryX=0;entryY=0.75;entryDx=0;entryDy=0;exitX=0.667;exitY=0;exitDx=0;exitDy=0;exitPerimeter=0;" parent="1" source="72" target="77" edge="1">
                    <mxGeometry width="50" height="50" relative="1" as="geometry">
                        <mxPoint x="440" y="309" as="sourcePoint"/>
                        <mxPoint x="560" y="190" as="targetPoint"/>
                        <Array as="points">
                            <mxPoint x="440" y="220"/>
                        </Array>
                    </mxGeometry>
                </mxCell>
                <mxCell id="292" value="Reg1" style="edgeLabel;html=1;align=center;verticalAlign=middle;resizable=0;points=[];fontSize=8;" parent="290" vertex="1" connectable="0">
                    <mxGeometry x="0.4113" y="-1" relative="1" as="geometry">
                        <mxPoint x="16" as="offset"/>
                    </mxGeometry>
                </mxCell>
                <mxCell id="296" value="" style="endArrow=classic;html=1;entryX=1;entryY=0.75;entryDx=0;entryDy=0;startArrow=oval;startFill=1;" parent="1" edge="1">
                    <mxGeometry width="50" height="50" relative="1" as="geometry">
                        <mxPoint x="1020" y="210" as="sourcePoint"/>
                        <mxPoint x="840.0000000000002" y="209.99999999999977" as="targetPoint"/>
                        <Array as="points">
                            <mxPoint x="960" y="210"/>
                        </Array>
                    </mxGeometry>
                </mxCell>
                <mxCell id="299" value="WriteEnable" style="edgeLabel;html=1;align=center;verticalAlign=middle;resizable=0;points=[];" parent="296" vertex="1" connectable="0">
                    <mxGeometry x="0.2448" y="1" relative="1" as="geometry">
                        <mxPoint x="-8" y="-1" as="offset"/>
                    </mxGeometry>
                </mxCell>
                <mxCell id="301" value="" style="endArrow=classic;html=1;entryX=1;entryY=0.75;entryDx=0;entryDy=0;exitX=0.666;exitY=0;exitDx=0;exitDy=0;exitPerimeter=0;" parent="1" source="73" edge="1">
                    <mxGeometry width="50" height="50" relative="1" as="geometry">
                        <mxPoint x="960" y="110" as="sourcePoint"/>
                        <mxPoint x="840" y="20" as="targetPoint"/>
                        <Array as="points">
                            <mxPoint x="1000" y="20"/>
                        </Array>
                    </mxGeometry>
                </mxCell>
                <mxCell id="302" value="Address" style="edgeLabel;html=1;align=center;verticalAlign=middle;resizable=0;points=[];" parent="301" vertex="1" connectable="0">
                    <mxGeometry x="0.2448" y="1" relative="1" as="geometry">
                        <mxPoint x="-69" y="-10" as="offset"/>
                    </mxGeometry>
                </mxCell>
                <mxCell id="303" value="" style="endArrow=classic;html=1;entryX=1;entryY=0.75;entryDx=0;entryDy=0;exitX=0.75;exitY=0;exitDx=0;exitDy=0;" parent="1" source="73" edge="1">
                    <mxGeometry width="50" height="50" relative="1" as="geometry">
                        <mxPoint x="1001" y="291" as="sourcePoint"/>
                        <mxPoint x="840" as="targetPoint"/>
                        <Array as="points">
                            <mxPoint x="1010"/>
                        </Array>
                    </mxGeometry>
                </mxCell>
                <mxCell id="304" value="Data" style="edgeLabel;html=1;align=center;verticalAlign=middle;resizable=0;points=[];" parent="303" vertex="1" connectable="0">
                    <mxGeometry x="0.2448" y="1" relative="1" as="geometry">
                        <mxPoint x="-79" y="-10" as="offset"/>
                    </mxGeometry>
                </mxCell>
                <mxCell id="305" value="" style="endArrow=classic;html=1;entryX=1;entryY=0.75;entryDx=0;entryDy=0;exitX=0.835;exitY=0;exitDx=0;exitDy=0;exitPerimeter=0;" parent="1" source="73" edge="1">
                    <mxGeometry width="50" height="50" relative="1" as="geometry">
                        <mxPoint x="1010" y="290" as="sourcePoint"/>
                        <mxPoint x="840" y="-20" as="targetPoint"/>
                        <Array as="points">
                            <mxPoint x="1020" y="-20"/>
                        </Array>
                    </mxGeometry>
                </mxCell>
                <mxCell id="306" value="Write enable" style="edgeLabel;html=1;align=center;verticalAlign=middle;resizable=0;points=[];" parent="305" vertex="1" connectable="0">
                    <mxGeometry x="0.2448" y="1" relative="1" as="geometry">
                        <mxPoint x="-89" y="-13" as="offset"/>
                    </mxGeometry>
                </mxCell>
                <mxCell id="307" value="" style="endArrow=classic;html=1;exitX=1.001;exitY=0.127;exitDx=0;exitDy=0;exitPerimeter=0;entryX=0;entryY=0.022;entryDx=0;entryDy=0;entryPerimeter=0;" parent="1" edge="1">
                    <mxGeometry width="50" height="50" relative="1" as="geometry">
                        <mxPoint x="840" y="369.93" as="sourcePoint"/>
                        <mxPoint x="920" y="369.93" as="targetPoint"/>
                    </mxGeometry>
                </mxCell>
                <mxCell id="308" value="RD" style="edgeLabel;html=1;align=center;verticalAlign=middle;resizable=0;points=[];fontSize=8;" parent="307" vertex="1" connectable="0">
                    <mxGeometry x="-0.0645" relative="1" as="geometry">
                        <mxPoint x="3" as="offset"/>
                    </mxGeometry>
                </mxCell>
                <mxCell id="309" value="" style="endArrow=classic;html=1;exitX=1.001;exitY=0.127;exitDx=0;exitDy=0;exitPerimeter=0;entryX=0;entryY=0.022;entryDx=0;entryDy=0;entryPerimeter=0;" parent="1" edge="1">
                    <mxGeometry width="50" height="50" relative="1" as="geometry">
                        <mxPoint x="840" y="490" as="sourcePoint"/>
                        <mxPoint x="920" y="490" as="targetPoint"/>
                    </mxGeometry>
                </mxCell>
                <mxCell id="310" value="RD" style="edgeLabel;html=1;align=center;verticalAlign=middle;resizable=0;points=[];fontSize=8;" parent="309" vertex="1" connectable="0">
                    <mxGeometry x="-0.0645" relative="1" as="geometry">
                        <mxPoint x="3" as="offset"/>
                    </mxGeometry>
                </mxCell>
                <mxCell id="311" value="" style="endArrow=classic;html=1;exitX=1.001;exitY=0.127;exitDx=0;exitDy=0;exitPerimeter=0;entryX=0;entryY=0.022;entryDx=0;entryDy=0;entryPerimeter=0;" parent="1" edge="1">
                    <mxGeometry width="50" height="50" relative="1" as="geometry">
                        <mxPoint x="840" y="610" as="sourcePoint"/>
                        <mxPoint x="920" y="610" as="targetPoint"/>
                    </mxGeometry>
                </mxCell>
                <mxCell id="312" value="RD" style="edgeLabel;html=1;align=center;verticalAlign=middle;resizable=0;points=[];fontSize=8;" parent="311" vertex="1" connectable="0">
                    <mxGeometry x="-0.0645" relative="1" as="geometry">
                        <mxPoint x="3" as="offset"/>
                    </mxGeometry>
                </mxCell>
                <mxCell id="313" value="" style="endArrow=classic;html=1;exitX=1.001;exitY=0.127;exitDx=0;exitDy=0;exitPerimeter=0;entryX=0;entryY=0.022;entryDx=0;entryDy=0;entryPerimeter=0;" parent="1" edge="1">
                    <mxGeometry width="50" height="50" relative="1" as="geometry">
                        <mxPoint x="840" y="690" as="sourcePoint"/>
                        <mxPoint x="920" y="690" as="targetPoint"/>
                    </mxGeometry>
                </mxCell>
                <mxCell id="314" value="RD" style="edgeLabel;html=1;align=center;verticalAlign=middle;resizable=0;points=[];fontSize=8;" parent="313" vertex="1" connectable="0">
                    <mxGeometry x="-0.0645" relative="1" as="geometry">
                        <mxPoint x="3" as="offset"/>
                    </mxGeometry>
                </mxCell>
                <mxCell id="315" value="" style="endArrow=classic;html=1;exitX=1.001;exitY=0.127;exitDx=0;exitDy=0;exitPerimeter=0;entryX=0;entryY=0.022;entryDx=0;entryDy=0;entryPerimeter=0;" parent="1" edge="1">
                    <mxGeometry width="50" height="50" relative="1" as="geometry">
                        <mxPoint x="840" y="810" as="sourcePoint"/>
                        <mxPoint x="920" y="810" as="targetPoint"/>
                    </mxGeometry>
                </mxCell>
                <mxCell id="316" value="RD" style="edgeLabel;html=1;align=center;verticalAlign=middle;resizable=0;points=[];fontSize=8;" parent="315" vertex="1" connectable="0">
                    <mxGeometry x="-0.0645" relative="1" as="geometry">
                        <mxPoint x="3" as="offset"/>
                    </mxGeometry>
                </mxCell>
                <mxCell id="317" value="" style="endArrow=classic;html=1;exitX=1.001;exitY=0.127;exitDx=0;exitDy=0;exitPerimeter=0;entryX=0;entryY=0.022;entryDx=0;entryDy=0;entryPerimeter=0;" parent="1" edge="1">
                    <mxGeometry width="50" height="50" relative="1" as="geometry">
                        <mxPoint x="840" y="1169" as="sourcePoint"/>
                        <mxPoint x="920" y="1169" as="targetPoint"/>
                    </mxGeometry>
                </mxCell>
                <mxCell id="318" value="RD" style="edgeLabel;html=1;align=center;verticalAlign=middle;resizable=0;points=[];fontSize=8;" parent="317" vertex="1" connectable="0">
                    <mxGeometry x="-0.0645" relative="1" as="geometry">
                        <mxPoint x="3" as="offset"/>
                    </mxGeometry>
                </mxCell>
                <mxCell id="319" value="" style="endArrow=classic;html=1;entryX=0;entryY=0.875;entryDx=0;entryDy=0;entryPerimeter=0;exitX=0.339;exitY=-0.001;exitDx=0;exitDy=0;exitPerimeter=0;" parent="1" source="72" edge="1">
                    <mxGeometry width="50" height="50" relative="1" as="geometry">
                        <mxPoint x="470" y="160" as="sourcePoint"/>
                        <mxPoint x="560" y="80" as="targetPoint"/>
                        <Array as="points">
                            <mxPoint x="401" y="80"/>
                        </Array>
                    </mxGeometry>
                </mxCell>
                <mxCell id="320" value="Address 2" style="edgeLabel;html=1;align=center;verticalAlign=middle;resizable=0;points=[];fontSize=8;" parent="319" vertex="1" connectable="0">
                    <mxGeometry x="0.3712" y="-1" relative="1" as="geometry">
                        <mxPoint x="79" as="offset"/>
                    </mxGeometry>
                </mxCell>
                <mxCell id="321" value="" style="endArrow=classic;html=1;entryX=0;entryY=0.875;entryDx=0;entryDy=0;entryPerimeter=0;exitX=0.25;exitY=0;exitDx=0;exitDy=0;" parent="1" source="72" edge="1">
                    <mxGeometry width="50" height="50" relative="1" as="geometry">
                        <mxPoint x="410" y="300" as="sourcePoint"/>
                        <mxPoint x="560" y="70" as="targetPoint"/>
                        <Array as="points">
                            <mxPoint x="390" y="70"/>
                        </Array>
                    </mxGeometry>
                </mxCell>
                <mxCell id="322" value="Address 1" style="edgeLabel;html=1;align=center;verticalAlign=middle;resizable=0;points=[];fontSize=8;" parent="321" vertex="1" connectable="0">
                    <mxGeometry x="0.3712" y="-1" relative="1" as="geometry">
                        <mxPoint x="86" as="offset"/>
                    </mxGeometry>
                </mxCell>
                <mxCell id="323" value="" style="endArrow=classic;html=1;entryX=0.169;entryY=0;entryDx=0;entryDy=0;entryPerimeter=0;" parent="1" target="72" edge="1">
                    <mxGeometry width="50" height="50" relative="1" as="geometry">
                        <mxPoint x="560" y="-10" as="sourcePoint"/>
                        <mxPoint x="430" y="110" as="targetPoint"/>
                        <Array as="points">
                            <mxPoint x="380" y="-10"/>
                        </Array>
                    </mxGeometry>
                </mxCell>
                <mxCell id="324" value="Occupancy1" style="edgeLabel;html=1;align=center;verticalAlign=middle;resizable=0;points=[];fontSize=8;" parent="323" vertex="1" connectable="0">
                    <mxGeometry x="-0.5712" y="-1" relative="1" as="geometry">
                        <mxPoint x="67" as="offset"/>
                    </mxGeometry>
                </mxCell>
                <mxCell id="325" value="" style="endArrow=classic;html=1;entryX=0.084;entryY=0;entryDx=0;entryDy=0;entryPerimeter=0;" parent="1" target="72" edge="1">
                    <mxGeometry width="50" height="50" relative="1" as="geometry">
                        <mxPoint x="560" y="-20" as="sourcePoint"/>
                        <mxPoint x="380" y="300" as="targetPoint"/>
                        <Array as="points">
                            <mxPoint x="370" y="-20"/>
                        </Array>
                    </mxGeometry>
                </mxCell>
                <mxCell id="326" value="Occupancy1" style="edgeLabel;html=1;align=center;verticalAlign=middle;resizable=0;points=[];fontSize=8;" parent="325" vertex="1" connectable="0">
                    <mxGeometry x="-0.5712" y="-1" relative="1" as="geometry">
                        <mxPoint x="72" y="1" as="offset"/>
                    </mxGeometry>
                </mxCell>
                <mxCell id="327" value="" style="endArrow=classic;html=1;exitX=0.25;exitY=1;exitDx=0;exitDy=0;entryX=0.25;entryY=0;entryDx=0;entryDy=0;" parent="1" source="83" target="84" edge="1">
                    <mxGeometry width="50" height="50" relative="1" as="geometry">
                        <mxPoint x="660" y="860" as="sourcePoint"/>
                        <mxPoint x="740" y="860" as="targetPoint"/>
                    </mxGeometry>
                </mxCell>
                <mxCell id="328" value="Data" style="edgeLabel;html=1;align=center;verticalAlign=middle;resizable=0;points=[];fontSize=8;" parent="327" vertex="1" connectable="0">
                    <mxGeometry x="-0.3153" relative="1" as="geometry">
                        <mxPoint y="-4" as="offset"/>
                    </mxGeometry>
                </mxCell>
                <mxCell id="329" value="" style="endArrow=classic;html=1;exitX=0.25;exitY=1;exitDx=0;exitDy=0;entryX=0.25;entryY=0;entryDx=0;entryDy=0;" parent="1" edge="1">
                    <mxGeometry width="50" height="50" relative="1" as="geometry">
                        <mxPoint x="650" y="840" as="sourcePoint"/>
                        <mxPoint x="650" y="880" as="targetPoint"/>
                    </mxGeometry>
                </mxCell>
                <mxCell id="330" value="Adress" style="edgeLabel;html=1;align=center;verticalAlign=middle;resizable=0;points=[];fontSize=8;" parent="329" vertex="1" connectable="0">
                    <mxGeometry x="-0.3153" relative="1" as="geometry">
                        <mxPoint y="6" as="offset"/>
                    </mxGeometry>
                </mxCell>
                <mxCell id="331" value="" style="endArrow=classic;html=1;exitX=0.25;exitY=1;exitDx=0;exitDy=0;entryX=0.25;entryY=0;entryDx=0;entryDy=0;" parent="1" edge="1">
                    <mxGeometry width="50" height="50" relative="1" as="geometry">
                        <mxPoint x="610" y="840" as="sourcePoint"/>
                        <mxPoint x="610" y="880" as="targetPoint"/>
                    </mxGeometry>
                </mxCell>
                <mxCell id="332" value="WE" style="edgeLabel;html=1;align=center;verticalAlign=middle;resizable=0;points=[];fontSize=8;" parent="331" vertex="1" connectable="0">
                    <mxGeometry x="-0.3153" relative="1" as="geometry">
                        <mxPoint y="6" as="offset"/>
                    </mxGeometry>
                </mxCell>
                <mxCell id="333" value="" style="endArrow=classic;html=1;exitX=0.25;exitY=1;exitDx=0;exitDy=0;entryX=0.25;entryY=0;entryDx=0;entryDy=0;" parent="1" edge="1">
                    <mxGeometry width="50" height="50" relative="1" as="geometry">
                        <mxPoint x="750" y="840" as="sourcePoint"/>
                        <mxPoint x="750" y="880" as="targetPoint"/>
                    </mxGeometry>
                </mxCell>
                <mxCell id="334" value="Address" style="edgeLabel;html=1;align=center;verticalAlign=middle;resizable=0;points=[];fontSize=8;" parent="333" vertex="1" connectable="0">
                    <mxGeometry x="-0.3153" relative="1" as="geometry">
                        <mxPoint as="offset"/>
                    </mxGeometry>
                </mxCell>
                <mxCell id="335" value="" style="endArrow=classic;html=1;exitX=0.75;exitY=0;exitDx=0;exitDy=0;entryX=0.75;entryY=1;entryDx=0;entryDy=0;" parent="1" source="84" target="83" edge="1">
                    <mxGeometry width="50" height="50" relative="1" as="geometry">
                        <mxPoint x="790" y="850" as="sourcePoint"/>
                        <mxPoint x="790" y="890" as="targetPoint"/>
                    </mxGeometry>
                </mxCell>
                <mxCell id="336" value="Data" style="edgeLabel;html=1;align=center;verticalAlign=middle;resizable=0;points=[];fontSize=8;" parent="335" vertex="1" connectable="0">
                    <mxGeometry x="-0.3153" relative="1" as="geometry">
                        <mxPoint as="offset"/>
                    </mxGeometry>
                </mxCell>
                <mxCell id="337" value="RAM" style="rounded=0;whiteSpace=wrap;html=1;fillColor=#dae8fc;strokeColor=#6c8ebf;" parent="1" vertex="1">
                    <mxGeometry x="360" y="1320" width="320" height="200" as="geometry"/>
                </mxCell>
                <mxCell id="338" value="Peripherals" style="rounded=0;whiteSpace=wrap;html=1;fillColor=#ffe6cc;strokeColor=#d79b00;" parent="1" vertex="1">
                    <mxGeometry x="720" y="1320" width="320" height="200" as="geometry"/>
                </mxCell>
                <mxCell id="342" value="" style="endArrow=block;html=1;entryX=0.416;entryY=0.999;entryDx=0;entryDy=0;entryPerimeter=0;startArrow=block;startFill=1;endFill=1;" parent="1" target="75" edge="1">
                    <mxGeometry width="50" height="50" relative="1" as="geometry">
                        <mxPoint x="1080" y="1300" as="sourcePoint"/>
                        <mxPoint x="230" y="1300" as="targetPoint"/>
                        <Array as="points">
                            <mxPoint x="-70" y="1300"/>
                        </Array>
                    </mxGeometry>
                </mxCell>
                <mxCell id="353" value="W/R" style="edgeLabel;html=1;align=center;verticalAlign=middle;resizable=0;points=[];fontSize=8;" parent="342" vertex="1" connectable="0">
                    <mxGeometry x="-0.0161" relative="1" as="geometry">
                        <mxPoint x="323" as="offset"/>
                    </mxGeometry>
                </mxCell>
                <mxCell id="345" value="" style="endArrow=block;html=1;entryX=0.5;entryY=1;entryDx=0;entryDy=0;startArrow=block;startFill=1;endFill=1;" parent="1" target="75" edge="1">
                    <mxGeometry width="50" height="50" relative="1" as="geometry">
                        <mxPoint x="1080" y="1290" as="sourcePoint"/>
                        <mxPoint x="230" y="1290" as="targetPoint"/>
                        <Array as="points">
                            <mxPoint x="-60" y="1290"/>
                        </Array>
                    </mxGeometry>
                </mxCell>
                <mxCell id="352" value="REQ" style="edgeLabel;html=1;align=center;verticalAlign=middle;resizable=0;points=[];fontSize=8;" parent="345" vertex="1" connectable="0">
                    <mxGeometry x="-0.0091" y="1" relative="1" as="geometry">
                        <mxPoint x="318" as="offset"/>
                    </mxGeometry>
                </mxCell>
                <mxCell id="346" value="" style="endArrow=block;html=1;entryX=0.582;entryY=1.002;entryDx=0;entryDy=0;entryPerimeter=0;startArrow=block;startFill=1;endFill=1;" parent="1" target="75" edge="1">
                    <mxGeometry width="50" height="50" relative="1" as="geometry">
                        <mxPoint x="1080" y="1280" as="sourcePoint"/>
                        <mxPoint x="230" y="1280" as="targetPoint"/>
                        <Array as="points">
                            <mxPoint x="-50" y="1280"/>
                        </Array>
                    </mxGeometry>
                </mxCell>
                <mxCell id="351" value="WData" style="edgeLabel;html=1;align=center;verticalAlign=middle;resizable=0;points=[];fontSize=8;" parent="346" vertex="1" connectable="0">
                    <mxGeometry x="-0.0132" relative="1" as="geometry">
                        <mxPoint x="305" as="offset"/>
                    </mxGeometry>
                </mxCell>
                <mxCell id="347" value="" style="endArrow=block;html=1;entryX=0.666;entryY=1.002;entryDx=0;entryDy=0;entryPerimeter=0;startArrow=block;startFill=1;endFill=1;" parent="1" target="75" edge="1">
                    <mxGeometry width="50" height="50" relative="1" as="geometry">
                        <mxPoint x="1080" y="1270" as="sourcePoint"/>
                        <mxPoint x="-39" y="882" as="targetPoint"/>
                        <Array as="points">
                            <mxPoint x="-39" y="1270"/>
                            <mxPoint x="-40" y="1060"/>
                        </Array>
                    </mxGeometry>
                </mxCell>
                <mxCell id="350" value="RData" style="edgeLabel;html=1;align=center;verticalAlign=middle;resizable=0;points=[];fontSize=8;" parent="347" vertex="1" connectable="0">
                    <mxGeometry x="-0.0056" y="1" relative="1" as="geometry">
                        <mxPoint x="300" as="offset"/>
                    </mxGeometry>
                </mxCell>
                <mxCell id="348" value="" style="endArrow=block;html=1;entryX=0.75;entryY=1;entryDx=0;entryDy=0;startArrow=block;startFill=1;endFill=1;" parent="1" target="75" edge="1">
                    <mxGeometry width="50" height="50" relative="1" as="geometry">
                        <mxPoint x="1080" y="1260" as="sourcePoint"/>
                        <mxPoint x="-30" y="882" as="targetPoint"/>
                        <Array as="points">
                            <mxPoint x="-30" y="1260"/>
                        </Array>
                    </mxGeometry>
                </mxCell>
                <mxCell id="349" value="Address" style="edgeLabel;html=1;align=center;verticalAlign=middle;resizable=0;points=[];fontSize=8;" parent="348" vertex="1" connectable="0">
                    <mxGeometry x="-0.0056" y="1" relative="1" as="geometry">
                        <mxPoint x="291" as="offset"/>
                    </mxGeometry>
                </mxCell>
                <mxCell id="354" value="" style="endArrow=block;html=1;entryX=0.464;entryY=0.996;entryDx=0;entryDy=0;entryPerimeter=0;startArrow=oval;startFill=1;endFill=1;" parent="1" target="86" edge="1">
                    <mxGeometry width="50" height="50" relative="1" as="geometry">
                        <mxPoint x="690" y="1260" as="sourcePoint"/>
                        <mxPoint x="740" y="1210" as="targetPoint"/>
                    </mxGeometry>
                </mxCell>
                <mxCell id="355" value="" style="endArrow=block;html=1;entryX=0.464;entryY=0.996;entryDx=0;entryDy=0;entryPerimeter=0;startArrow=oval;startFill=1;endFill=1;" parent="1" edge="1">
                    <mxGeometry width="50" height="50" relative="1" as="geometry">
                        <mxPoint x="700" y="1270" as="sourcePoint"/>
                        <mxPoint x="699.88" y="1200" as="targetPoint"/>
                    </mxGeometry>
                </mxCell>
                <mxCell id="356" value="" style="endArrow=block;html=1;entryX=0.464;entryY=0.996;entryDx=0;entryDy=0;entryPerimeter=0;startArrow=oval;startFill=1;endFill=1;" parent="1" edge="1">
                    <mxGeometry width="50" height="50" relative="1" as="geometry">
                        <mxPoint x="710" y="1280" as="sourcePoint"/>
                        <mxPoint x="710" y="1200" as="targetPoint"/>
                    </mxGeometry>
                </mxCell>
                <mxCell id="357" value="" style="endArrow=block;html=1;entryX=0.464;entryY=0.996;entryDx=0;entryDy=0;entryPerimeter=0;startArrow=oval;startFill=1;endFill=1;" parent="1" edge="1">
                    <mxGeometry width="50" height="50" relative="1" as="geometry">
                        <mxPoint x="720" y="1290" as="sourcePoint"/>
                        <mxPoint x="720" y="1200" as="targetPoint"/>
                    </mxGeometry>
                </mxCell>
                <mxCell id="358" value="" style="endArrow=block;html=1;entryX=0.464;entryY=0.996;entryDx=0;entryDy=0;entryPerimeter=0;startArrow=oval;startFill=1;endFill=1;" parent="1" edge="1">
                    <mxGeometry width="50" height="50" relative="1" as="geometry">
                        <mxPoint x="730" y="1300" as="sourcePoint"/>
                        <mxPoint x="730" y="1200" as="targetPoint"/>
                    </mxGeometry>
                </mxCell>
                <mxCell id="359" value="" style="endArrow=oval;html=1;startArrow=none;startFill=0;endFill=1;" parent="1" edge="1">
                    <mxGeometry width="50" height="50" relative="1" as="geometry">
                        <mxPoint x="490" y="1320" as="sourcePoint"/>
                        <mxPoint x="490" y="1260" as="targetPoint"/>
                    </mxGeometry>
                </mxCell>
                <mxCell id="360" value="" style="endArrow=oval;html=1;startArrow=none;startFill=0;endFill=1;" parent="1" edge="1">
                    <mxGeometry width="50" height="50" relative="1" as="geometry">
                        <mxPoint x="500" y="1320" as="sourcePoint"/>
                        <mxPoint x="500" y="1270" as="targetPoint"/>
                    </mxGeometry>
                </mxCell>
                <mxCell id="361" value="" style="endArrow=oval;html=1;startArrow=none;startFill=0;endFill=1;" parent="1" edge="1">
                    <mxGeometry width="50" height="50" relative="1" as="geometry">
                        <mxPoint x="510" y="1320" as="sourcePoint"/>
                        <mxPoint x="510" y="1280" as="targetPoint"/>
                    </mxGeometry>
                </mxCell>
                <mxCell id="362" value="" style="endArrow=oval;html=1;startArrow=none;startFill=0;endFill=1;" parent="1" edge="1">
                    <mxGeometry width="50" height="50" relative="1" as="geometry">
                        <mxPoint x="520" y="1320" as="sourcePoint"/>
                        <mxPoint x="520" y="1290" as="targetPoint"/>
                    </mxGeometry>
                </mxCell>
                <mxCell id="363" value="" style="endArrow=oval;html=1;startArrow=none;startFill=0;endFill=1;" parent="1" edge="1">
                    <mxGeometry width="50" height="50" relative="1" as="geometry">
                        <mxPoint x="530" y="1320" as="sourcePoint"/>
                        <mxPoint x="530" y="1300" as="targetPoint"/>
                    </mxGeometry>
                </mxCell>
                <mxCell id="364" value="" style="endArrow=oval;html=1;startArrow=none;startFill=0;endFill=1;" parent="1" edge="1">
                    <mxGeometry width="50" height="50" relative="1" as="geometry">
                        <mxPoint x="870" y="1320" as="sourcePoint"/>
                        <mxPoint x="870" y="1260" as="targetPoint"/>
                    </mxGeometry>
                </mxCell>
                <mxCell id="365" value="" style="endArrow=oval;html=1;startArrow=none;startFill=0;endFill=1;" parent="1" edge="1">
                    <mxGeometry width="50" height="50" relative="1" as="geometry">
                        <mxPoint x="880" y="1320" as="sourcePoint"/>
                        <mxPoint x="880" y="1270" as="targetPoint"/>
                    </mxGeometry>
                </mxCell>
                <mxCell id="366" value="" style="endArrow=oval;html=1;startArrow=none;startFill=0;endFill=1;" parent="1" edge="1">
                    <mxGeometry width="50" height="50" relative="1" as="geometry">
                        <mxPoint x="890" y="1320" as="sourcePoint"/>
                        <mxPoint x="890" y="1280" as="targetPoint"/>
                    </mxGeometry>
                </mxCell>
                <mxCell id="367" value="" style="endArrow=oval;html=1;startArrow=none;startFill=0;endFill=1;" parent="1" edge="1">
                    <mxGeometry width="50" height="50" relative="1" as="geometry">
                        <mxPoint x="900" y="1320" as="sourcePoint"/>
                        <mxPoint x="900" y="1290" as="targetPoint"/>
                    </mxGeometry>
                </mxCell>
                <mxCell id="368" value="" style="endArrow=oval;html=1;startArrow=none;startFill=0;endFill=1;" parent="1" edge="1">
                    <mxGeometry width="50" height="50" relative="1" as="geometry">
                        <mxPoint x="910" y="1320" as="sourcePoint"/>
                        <mxPoint x="910" y="1300" as="targetPoint"/>
                    </mxGeometry>
                </mxCell>
                <mxCell id="371" value="Counter (Commited)" style="rounded=0;whiteSpace=wrap;html=1;fillColor=#e1d5e7;strokeColor=#9673a6;" parent="1" vertex="1">
                    <mxGeometry x="1120" y="900" width="120" height="80" as="geometry"/>
                </mxCell>
                <mxCell id="372" value="" style="endArrow=classic;html=1;exitX=1;exitY=0.708;exitDx=0;exitDy=0;exitPerimeter=0;entryX=0;entryY=0.5;entryDx=0;entryDy=0;" parent="1" source="73" target="371" edge="1">
                    <mxGeometry width="50" height="50" relative="1" as="geometry">
                        <mxPoint x="1140" y="980" as="sourcePoint"/>
                        <mxPoint x="1190" y="930" as="targetPoint"/>
                    </mxGeometry>
                </mxCell>
                <mxCell id="391" value="Finished" style="edgeLabel;html=1;align=center;verticalAlign=middle;resizable=0;points=[];" parent="372" vertex="1" connectable="0">
                    <mxGeometry x="-0.0265" y="-1" relative="1" as="geometry">
                        <mxPoint as="offset"/>
                    </mxGeometry>
                </mxCell>
                <mxCell id="373" value="Counter (Decoded)" style="rounded=0;whiteSpace=wrap;html=1;fillColor=#e1d5e7;strokeColor=#9673a6;" parent="1" vertex="1">
                    <mxGeometry x="120" y="900" width="120" height="80" as="geometry"/>
                </mxCell>
                <mxCell id="374" value="Counter (Flush)" style="rounded=0;whiteSpace=wrap;html=1;fillColor=#e1d5e7;strokeColor=#9673a6;" parent="1" vertex="1">
                    <mxGeometry x="1120" y="1000" width="120" height="80" as="geometry"/>
                </mxCell>
                <mxCell id="376" value="Counter (Issued)" style="rounded=0;whiteSpace=wrap;html=1;fillColor=#e1d5e7;strokeColor=#9673a6;" parent="1" vertex="1">
                    <mxGeometry x="120" y="1000" width="120" height="80" as="geometry"/>
                </mxCell>
                <mxCell id="377" value="Counter (Waited)" style="rounded=0;whiteSpace=wrap;html=1;fillColor=#e1d5e7;strokeColor=#9673a6;" parent="1" vertex="1">
                    <mxGeometry x="120" y="1100" width="120" height="80" as="geometry"/>
                </mxCell>
                <mxCell id="378" value="Counter (Total)" style="rounded=0;whiteSpace=wrap;html=1;fillColor=#e1d5e7;strokeColor=#9673a6;" parent="1" vertex="1">
                    <mxGeometry x="1121" y="1100" width="120" height="80" as="geometry"/>
                </mxCell>
                <mxCell id="382" value="" style="endArrow=classic;html=1;" parent="1" edge="1">
                    <mxGeometry width="50" height="50" relative="1" as="geometry">
                        <mxPoint x="120" y="870" as="sourcePoint"/>
                        <mxPoint y="870" as="targetPoint"/>
                    </mxGeometry>
                </mxCell>
                <mxCell id="383" value="Busy" style="edgeLabel;html=1;align=center;verticalAlign=middle;resizable=0;points=[];fontSize=8;" parent="382" vertex="1" connectable="0">
                    <mxGeometry x="0.3649" y="3" relative="1" as="geometry">
                        <mxPoint x="22" y="-3" as="offset"/>
                    </mxGeometry>
                </mxCell>
                <mxCell id="384" value="" style="endArrow=classic;html=1;" parent="1" edge="1">
                    <mxGeometry width="50" height="50" relative="1" as="geometry">
                        <mxPoint x="40" y="870" as="sourcePoint"/>
                        <mxPoint y="550" as="targetPoint"/>
                        <Array as="points">
                            <mxPoint x="40" y="550"/>
                        </Array>
                    </mxGeometry>
                </mxCell>
                <mxCell id="385" value="Busy" style="edgeLabel;html=1;align=center;verticalAlign=middle;resizable=0;points=[];fontSize=8;" parent="384" vertex="1" connectable="0">
                    <mxGeometry x="0.3649" y="3" relative="1" as="geometry">
                        <mxPoint x="-17" y="-74" as="offset"/>
                    </mxGeometry>
                </mxCell>
                <mxCell id="386" value="" style="endArrow=classic;html=1;" parent="1" edge="1">
                    <mxGeometry width="50" height="50" relative="1" as="geometry">
                        <mxPoint x="360" y="1039.66" as="sourcePoint"/>
                        <mxPoint x="240" y="1039.66" as="targetPoint"/>
                    </mxGeometry>
                </mxCell>
                <mxCell id="388" value="Issued" style="edgeLabel;html=1;align=center;verticalAlign=middle;resizable=0;points=[];fontSize=8;" parent="386" vertex="1" connectable="0">
                    <mxGeometry x="-0.0144" y="-2" relative="1" as="geometry">
                        <mxPoint x="-1" y="2" as="offset"/>
                    </mxGeometry>
                </mxCell>
                <mxCell id="389" value="" style="endArrow=classic;html=1;" parent="1" edge="1">
                    <mxGeometry width="50" height="50" relative="1" as="geometry">
                        <mxPoint x="360" y="1120" as="sourcePoint"/>
                        <mxPoint x="240" y="1120" as="targetPoint"/>
                    </mxGeometry>
                </mxCell>
                <mxCell id="390" value="Waited" style="edgeLabel;html=1;align=center;verticalAlign=middle;resizable=0;points=[];fontSize=8;" parent="389" vertex="1" connectable="0">
                    <mxGeometry x="-0.0144" y="-2" relative="1" as="geometry">
                        <mxPoint x="-1" y="2" as="offset"/>
                    </mxGeometry>
                </mxCell>
                <mxCell id="393" value="" style="endArrow=classic;html=1;exitX=1;exitY=0.708;exitDx=0;exitDy=0;exitPerimeter=0;entryX=0;entryY=0.5;entryDx=0;entryDy=0;" parent="1" edge="1">
                    <mxGeometry width="50" height="50" relative="1" as="geometry">
                        <mxPoint x="1040" y="1039.76" as="sourcePoint"/>
                        <mxPoint x="1120" y="1039.76" as="targetPoint"/>
                    </mxGeometry>
                </mxCell>
                <mxCell id="394" value="Flushed" style="edgeLabel;html=1;align=center;verticalAlign=middle;resizable=0;points=[];" parent="393" vertex="1" connectable="0">
                    <mxGeometry x="-0.0265" y="-1" relative="1" as="geometry">
                        <mxPoint as="offset"/>
                    </mxGeometry>
                </mxCell>
                <mxCell id="395" value="" style="endArrow=classic;html=1;entryX=0;entryY=0.5;entryDx=0;entryDy=0;" parent="1" edge="1">
                    <mxGeometry width="50" height="50" relative="1" as="geometry">
                        <mxPoint x="1100" y="1110" as="sourcePoint"/>
                        <mxPoint x="1121" y="1110" as="targetPoint"/>
                    </mxGeometry>
                </mxCell>
                <mxCell id="397" value="&#39;1&#39;" style="edgeLabel;html=1;align=center;verticalAlign=middle;resizable=0;points=[];" parent="395" vertex="1" connectable="0">
                    <mxGeometry x="-0.2608" relative="1" as="geometry">
                        <mxPoint x="-18" as="offset"/>
                    </mxGeometry>
                </mxCell>
                <mxCell id="398" value="" style="endArrow=classic;html=1;exitX=0;exitY=0.75;exitDx=0;exitDy=0;entryX=1.001;entryY=0.4;entryDx=0;entryDy=0;entryPerimeter=0;" parent="1" source="371" target="84" edge="1">
                    <mxGeometry width="50" height="50" relative="1" as="geometry">
                        <mxPoint x="740" y="940" as="sourcePoint"/>
                        <mxPoint x="790" y="890" as="targetPoint"/>
                    </mxGeometry>
                </mxCell>
                <mxCell id="410" value="value" style="edgeLabel;html=1;align=center;verticalAlign=middle;resizable=0;points=[];fontSize=8;" parent="398" vertex="1" connectable="0">
                    <mxGeometry x="0.7904" y="1" relative="1" as="geometry">
                        <mxPoint x="10" as="offset"/>
                    </mxGeometry>
                </mxCell>
                <mxCell id="399" value="" style="endArrow=classic;html=1;exitX=0;exitY=0.75;exitDx=0;exitDy=0;entryX=1.001;entryY=0.4;entryDx=0;entryDy=0;entryPerimeter=0;" parent="1" edge="1">
                    <mxGeometry width="50" height="50" relative="1" as="geometry">
                        <mxPoint x="1121" y="1020" as="sourcePoint"/>
                        <mxPoint x="841" y="1020" as="targetPoint"/>
                    </mxGeometry>
                </mxCell>
                <mxCell id="409" value="value" style="edgeLabel;html=1;align=center;verticalAlign=middle;resizable=0;points=[];fontSize=8;" parent="399" vertex="1" connectable="0">
                    <mxGeometry x="0.7871" relative="1" as="geometry">
                        <mxPoint x="9" as="offset"/>
                    </mxGeometry>
                </mxCell>
                <mxCell id="400" value="" style="endArrow=classic;html=1;exitX=0;exitY=0.75;exitDx=0;exitDy=0;entryX=1;entryY=0.899;entryDx=0;entryDy=0;entryPerimeter=0;" parent="1" target="84" edge="1">
                    <mxGeometry width="50" height="50" relative="1" as="geometry">
                        <mxPoint x="1121" y="1130" as="sourcePoint"/>
                        <mxPoint x="841" y="1130" as="targetPoint"/>
                        <Array as="points">
                            <mxPoint x="1060" y="1130"/>
                            <mxPoint x="1060" y="1060"/>
                        </Array>
                    </mxGeometry>
                </mxCell>
                <mxCell id="408" value="value" style="edgeLabel;html=1;align=center;verticalAlign=middle;resizable=0;points=[];fontSize=8;" parent="400" vertex="1" connectable="0">
                    <mxGeometry x="0.8177" y="1" relative="1" as="geometry">
                        <mxPoint x="8" as="offset"/>
                    </mxGeometry>
                </mxCell>
                <mxCell id="401" value="" style="endArrow=classic;html=1;exitX=1;exitY=0.75;exitDx=0;exitDy=0;entryX=0;entryY=0.4;entryDx=0;entryDy=0;entryPerimeter=0;" parent="1" source="373" target="84" edge="1">
                    <mxGeometry width="50" height="50" relative="1" as="geometry">
                        <mxPoint x="470" y="1020" as="sourcePoint"/>
                        <mxPoint x="520" y="970" as="targetPoint"/>
                    </mxGeometry>
                </mxCell>
                <mxCell id="404" value="value" style="edgeLabel;html=1;align=center;verticalAlign=middle;resizable=0;points=[];fontSize=8;" parent="401" vertex="1" connectable="0">
                    <mxGeometry x="0.745" y="1" relative="1" as="geometry">
                        <mxPoint x="1" as="offset"/>
                    </mxGeometry>
                </mxCell>
                <mxCell id="402" value="" style="endArrow=classic;html=1;exitX=1;exitY=0.75;exitDx=0;exitDy=0;entryX=0;entryY=0.4;entryDx=0;entryDy=0;entryPerimeter=0;" parent="1" edge="1">
                    <mxGeometry width="50" height="50" relative="1" as="geometry">
                        <mxPoint x="240" y="1020" as="sourcePoint"/>
                        <mxPoint x="560" y="1020" as="targetPoint"/>
                    </mxGeometry>
                </mxCell>
                <mxCell id="405" value="value" style="edgeLabel;html=1;align=center;verticalAlign=middle;resizable=0;points=[];fontSize=8;" parent="402" vertex="1" connectable="0">
                    <mxGeometry x="0.7175" y="1" relative="1" as="geometry">
                        <mxPoint x="5" as="offset"/>
                    </mxGeometry>
                </mxCell>
                <mxCell id="403" value="" style="endArrow=classic;html=1;exitX=1;exitY=0.75;exitDx=0;exitDy=0;entryX=0;entryY=0.9;entryDx=0;entryDy=0;entryPerimeter=0;" parent="1" target="84" edge="1">
                    <mxGeometry width="50" height="50" relative="1" as="geometry">
                        <mxPoint x="240" y="1139.58" as="sourcePoint"/>
                        <mxPoint x="560" y="1139.58" as="targetPoint"/>
                        <Array as="points">
                            <mxPoint x="330" y="1140"/>
                            <mxPoint x="330" y="1060"/>
                        </Array>
                    </mxGeometry>
                </mxCell>
                <mxCell id="406" value="value" style="edgeLabel;html=1;align=center;verticalAlign=middle;resizable=0;points=[];fontSize=8;" parent="403" vertex="1" connectable="0">
                    <mxGeometry x="0.792" y="-1" relative="1" as="geometry">
                        <mxPoint x="2" as="offset"/>
                    </mxGeometry>
                </mxCell>
                <mxCell id="413" value="" style="edgeStyle=none;html=1;" parent="1" source="411" target="75" edge="1">
                    <mxGeometry relative="1" as="geometry"/>
                </mxCell>
                <mxCell id="411" value="Program counter" style="rounded=0;whiteSpace=wrap;html=1;fillColor=#d5e8d4;strokeColor=#82b366;" parent="1" vertex="1">
                    <mxGeometry x="-280" y="630" width="120" height="250" as="geometry"/>
                </mxCell>
                <mxCell id="414" value="" style="edgeStyle=none;html=1;" parent="1" source="412" target="76" edge="1">
                    <mxGeometry relative="1" as="geometry"/>
                </mxCell>
                <mxCell id="412" value="Micro Program counter" style="rounded=0;whiteSpace=wrap;html=1;fillColor=#d5e8d4;strokeColor=#82b366;" parent="1" vertex="1">
                    <mxGeometry x="-280" y="310" width="120" height="250" as="geometry"/>
                </mxCell>
                <mxCell id="417" value="" style="edgeStyle=none;html=1;entryX=-0.016;entryY=0.559;entryDx=0;entryDy=0;entryPerimeter=0;" parent="1" target="71" edge="1">
                    <mxGeometry relative="1" as="geometry">
                        <mxPoint x="-160" y="770" as="sourcePoint"/>
                        <mxPoint x="-120" y="770" as="targetPoint"/>
                    </mxGeometry>
                </mxCell>
                <mxCell id="418" value="" style="edgeStyle=none;html=1;entryX=-0.004;entryY=0.321;entryDx=0;entryDy=0;entryPerimeter=0;" parent="1" target="71" edge="1">
                    <mxGeometry relative="1" as="geometry">
                        <mxPoint x="-160" y="450" as="sourcePoint"/>
                        <mxPoint x="-120" y="450" as="targetPoint"/>
                        <Array as="points">
                            <mxPoint x="50" y="450"/>
                            <mxPoint x="50" y="710"/>
                        </Array>
                    </mxGeometry>
                </mxCell>
                <mxCell id="419" value="" style="endArrow=classic;html=1;exitX=1.001;exitY=0.127;exitDx=0;exitDy=0;exitPerimeter=0;entryX=0;entryY=0.022;entryDx=0;entryDy=0;entryPerimeter=0;" parent="1" edge="1">
                    <mxGeometry width="50" height="50" relative="1" as="geometry">
                        <mxPoint x="480" y="359.86" as="sourcePoint"/>
                        <mxPoint x="560" y="359.86" as="targetPoint"/>
                    </mxGeometry>
                </mxCell>
                <mxCell id="420" value="RD" style="edgeLabel;html=1;align=center;verticalAlign=middle;resizable=0;points=[];fontSize=8;" parent="419" vertex="1" connectable="0">
                    <mxGeometry x="-0.0645" relative="1" as="geometry">
                        <mxPoint x="3" as="offset"/>
                    </mxGeometry>
                </mxCell>
                <mxCell id="421" value="" style="endArrow=classic;html=1;exitX=1.001;exitY=0.127;exitDx=0;exitDy=0;exitPerimeter=0;entryX=0;entryY=0.022;entryDx=0;entryDy=0;entryPerimeter=0;" parent="1" edge="1">
                    <mxGeometry width="50" height="50" relative="1" as="geometry">
                        <mxPoint x="480" y="479.71000000000004" as="sourcePoint"/>
                        <mxPoint x="560" y="479.71000000000004" as="targetPoint"/>
                    </mxGeometry>
                </mxCell>
                <mxCell id="422" value="RD" style="edgeLabel;html=1;align=center;verticalAlign=middle;resizable=0;points=[];fontSize=8;" parent="421" vertex="1" connectable="0">
                    <mxGeometry x="-0.0645" relative="1" as="geometry">
                        <mxPoint x="3" as="offset"/>
                    </mxGeometry>
                </mxCell>
                <mxCell id="423" value="" style="endArrow=classic;html=1;exitX=1.001;exitY=0.127;exitDx=0;exitDy=0;exitPerimeter=0;entryX=0;entryY=0.022;entryDx=0;entryDy=0;entryPerimeter=0;" parent="1" edge="1">
                    <mxGeometry width="50" height="50" relative="1" as="geometry">
                        <mxPoint x="480" y="599.71" as="sourcePoint"/>
                        <mxPoint x="560" y="599.71" as="targetPoint"/>
                    </mxGeometry>
                </mxCell>
                <mxCell id="424" value="RD" style="edgeLabel;html=1;align=center;verticalAlign=middle;resizable=0;points=[];fontSize=8;" parent="423" vertex="1" connectable="0">
                    <mxGeometry x="-0.0645" relative="1" as="geometry">
                        <mxPoint x="3" as="offset"/>
                    </mxGeometry>
                </mxCell>
                <mxCell id="425" value="" style="endArrow=classic;html=1;exitX=1.001;exitY=0.127;exitDx=0;exitDy=0;exitPerimeter=0;entryX=0;entryY=0.022;entryDx=0;entryDy=0;entryPerimeter=0;" parent="1" edge="1">
                    <mxGeometry width="50" height="50" relative="1" as="geometry">
                        <mxPoint x="480" y="679.71" as="sourcePoint"/>
                        <mxPoint x="560" y="679.71" as="targetPoint"/>
                    </mxGeometry>
                </mxCell>
                <mxCell id="426" value="RD" style="edgeLabel;html=1;align=center;verticalAlign=middle;resizable=0;points=[];fontSize=8;" parent="425" vertex="1" connectable="0">
                    <mxGeometry x="-0.0645" relative="1" as="geometry">
                        <mxPoint x="3" as="offset"/>
                    </mxGeometry>
                </mxCell>
                <mxCell id="427" value="" style="endArrow=classic;html=1;exitX=1.001;exitY=0.127;exitDx=0;exitDy=0;exitPerimeter=0;entryX=0;entryY=0.022;entryDx=0;entryDy=0;entryPerimeter=0;" parent="1" edge="1">
                    <mxGeometry width="50" height="50" relative="1" as="geometry">
                        <mxPoint x="480" y="799.71" as="sourcePoint"/>
                        <mxPoint x="560" y="799.71" as="targetPoint"/>
                    </mxGeometry>
                </mxCell>
                <mxCell id="428" value="RD" style="edgeLabel;html=1;align=center;verticalAlign=middle;resizable=0;points=[];fontSize=8;" parent="427" vertex="1" connectable="0">
                    <mxGeometry x="-0.0645" relative="1" as="geometry">
                        <mxPoint x="3" as="offset"/>
                    </mxGeometry>
                </mxCell>
                <mxCell id="429" value="" style="endArrow=classic;html=1;exitX=1.001;exitY=0.127;exitDx=0;exitDy=0;exitPerimeter=0;entryX=0;entryY=0.022;entryDx=0;entryDy=0;entryPerimeter=0;" parent="1" edge="1">
                    <mxGeometry width="50" height="50" relative="1" as="geometry">
                        <mxPoint x="480" y="1159.71" as="sourcePoint"/>
                        <mxPoint x="560" y="1159.71" as="targetPoint"/>
                    </mxGeometry>
                </mxCell>
                <mxCell id="430" value="RD" style="edgeLabel;html=1;align=center;verticalAlign=middle;resizable=0;points=[];fontSize=8;" parent="429" vertex="1" connectable="0">
                    <mxGeometry x="-0.0645" relative="1" as="geometry">
                        <mxPoint x="3" as="offset"/>
                    </mxGeometry>
                </mxCell>
                <mxCell id="431" value="" style="endArrow=classic;html=1;entryX=0;entryY=0.875;entryDx=0;entryDy=0;entryPerimeter=0;" parent="1" edge="1">
                    <mxGeometry width="50" height="50" relative="1" as="geometry">
                        <mxPoint x="430" y="310" as="sourcePoint"/>
                        <mxPoint x="560" y="210" as="targetPoint"/>
                        <Array as="points">
                            <mxPoint x="430" y="210"/>
                        </Array>
                    </mxGeometry>
                </mxCell>
                <mxCell id="432" value="RegD" style="edgeLabel;html=1;align=center;verticalAlign=middle;resizable=0;points=[];fontSize=8;" parent="431" vertex="1" connectable="0">
                    <mxGeometry x="0.3712" y="-1" relative="1" as="geometry">
                        <mxPoint x="26" as="offset"/>
                    </mxGeometry>
                </mxCell>
                <mxCell id="433" value="" style="endArrow=classic;html=1;entryX=0.5;entryY=0;entryDx=0;entryDy=0;" parent="1" target="72" edge="1">
                    <mxGeometry width="50" height="50" relative="1" as="geometry">
                        <mxPoint x="560" y="180" as="sourcePoint"/>
                        <mxPoint x="430" y="300" as="targetPoint"/>
                        <Array as="points">
                            <mxPoint x="420" y="180"/>
                        </Array>
                    </mxGeometry>
                </mxCell>
                <mxCell id="434" value="Exec OK" style="edgeLabel;html=1;align=center;verticalAlign=middle;resizable=0;points=[];fontSize=8;" parent="433" vertex="1" connectable="0">
                    <mxGeometry x="-0.5712" y="-1" relative="1" as="geometry">
                        <mxPoint x="18" as="offset"/>
                    </mxGeometry>
                </mxCell>
                <mxCell id="435" value="" style="endArrow=classic;html=1;entryX=1;entryY=0.75;entryDx=0;entryDy=0;startArrow=oval;startFill=1;" parent="1" edge="1">
                    <mxGeometry width="50" height="50" relative="1" as="geometry">
                        <mxPoint x="1000" y="190" as="sourcePoint"/>
                        <mxPoint x="840.0000000000002" y="189.99999999999977" as="targetPoint"/>
                        <Array as="points">
                            <mxPoint x="960" y="190"/>
                        </Array>
                    </mxGeometry>
                </mxCell>
                <mxCell id="436" value="Address" style="edgeLabel;html=1;align=center;verticalAlign=middle;resizable=0;points=[];" parent="435" vertex="1" connectable="0">
                    <mxGeometry x="0.2448" y="1" relative="1" as="geometry">
                        <mxPoint x="-1" y="-1" as="offset"/>
                    </mxGeometry>
                </mxCell>
                <mxCell id="437" value="" style="endArrow=none;html=1;entryX=0.418;entryY=0;entryDx=0;entryDy=0;entryPerimeter=0;startArrow=classic;startFill=1;endFill=0;" parent="1" target="72" edge="1">
                    <mxGeometry width="50" height="50" relative="1" as="geometry">
                        <mxPoint x="560" y="170" as="sourcePoint"/>
                        <mxPoint x="420" y="300" as="targetPoint"/>
                        <Array as="points">
                            <mxPoint x="410" y="170"/>
                        </Array>
                    </mxGeometry>
                </mxCell>
                <mxCell id="438" value="Lock" style="edgeLabel;html=1;align=center;verticalAlign=middle;resizable=0;points=[];fontSize=8;" parent="437" vertex="1" connectable="0">
                    <mxGeometry x="-0.5712" y="-1" relative="1" as="geometry">
                        <mxPoint x="18" as="offset"/>
                    </mxGeometry>
                </mxCell>
                <mxCell id="439" value="" style="endArrow=classic;html=1;startArrow=oval;startFill=1;entryX=0.828;entryY=0;entryDx=0;entryDy=0;entryPerimeter=0;" edge="1" parent="1" target="72">
                    <mxGeometry width="50" height="50" relative="1" as="geometry">
                        <mxPoint x="1000" y="260" as="sourcePoint"/>
                        <mxPoint x="459.5999999999999" y="290" as="targetPoint"/>
                        <Array as="points">
                            <mxPoint x="960" y="260"/>
                            <mxPoint x="460" y="260"/>
                        </Array>
                    </mxGeometry>
                </mxCell>
                <mxCell id="440" value="Address" style="edgeLabel;html=1;align=center;verticalAlign=middle;resizable=0;points=[];" vertex="1" connectable="0" parent="439">
                    <mxGeometry x="0.2448" y="1" relative="1" as="geometry">
                        <mxPoint x="67" y="-1" as="offset"/>
                    </mxGeometry>
                </mxCell>
                <mxCell id="442" value="" style="endArrow=classic;html=1;startArrow=oval;startFill=1;entryX=0.916;entryY=0;entryDx=0;entryDy=0;entryPerimeter=0;" edge="1" parent="1" target="72">
                    <mxGeometry width="50" height="50" relative="1" as="geometry">
                        <mxPoint x="1010" y="270" as="sourcePoint"/>
                        <mxPoint x="469" y="320" as="targetPoint"/>
                        <Array as="points">
                            <mxPoint x="970" y="270"/>
                            <mxPoint x="470" y="270"/>
                        </Array>
                    </mxGeometry>
                </mxCell>
                <mxCell id="443" value="Data" style="edgeLabel;html=1;align=center;verticalAlign=middle;resizable=0;points=[];" vertex="1" connectable="0" parent="442">
                    <mxGeometry x="0.2448" y="1" relative="1" as="geometry">
                        <mxPoint x="51" y="-1" as="offset"/>
                    </mxGeometry>
                </mxCell>
                <mxCell id="444" value="bypass to skip register file" style="text;html=1;align=center;verticalAlign=middle;resizable=0;points=[];autosize=1;strokeColor=none;fillColor=none;" vertex="1" parent="1">
                    <mxGeometry x="620" y="280" width="160" height="30" as="geometry"/>
                </mxCell>
                <mxCell id="446" value="" style="endArrow=block;html=1;entryX=0.332;entryY=1.002;entryDx=0;entryDy=0;entryPerimeter=0;startArrow=block;startFill=1;endFill=1;" edge="1" parent="1" target="75">
                    <mxGeometry width="50" height="50" relative="1" as="geometry">
                        <mxPoint x="1080" y="1310" as="sourcePoint"/>
                        <mxPoint x="-70" y="890" as="targetPoint"/>
                        <Array as="points">
                            <mxPoint x="-80" y="1310"/>
                        </Array>
                    </mxGeometry>
                </mxCell>
                <mxCell id="447" value="ACK" style="edgeLabel;html=1;align=center;verticalAlign=middle;resizable=0;points=[];fontSize=8;" vertex="1" connectable="0" parent="446">
                    <mxGeometry x="-0.0161" relative="1" as="geometry">
                        <mxPoint x="322" as="offset"/>
                    </mxGeometry>
                </mxCell>
                <mxCell id="449" value="" style="endArrow=oval;html=1;startArrow=none;startFill=0;endFill=1;" edge="1" parent="1">
                    <mxGeometry width="50" height="50" relative="1" as="geometry">
                        <mxPoint x="540" y="1320" as="sourcePoint"/>
                        <mxPoint x="540" y="1310" as="targetPoint"/>
                    </mxGeometry>
                </mxCell>
                <mxCell id="450" value="" style="endArrow=oval;html=1;startArrow=none;startFill=0;endFill=1;" edge="1" parent="1">
                    <mxGeometry width="50" height="50" relative="1" as="geometry">
                        <mxPoint x="920" y="1320" as="sourcePoint"/>
                        <mxPoint x="920" y="1310" as="targetPoint"/>
                    </mxGeometry>
                </mxCell>
                <mxCell id="452" value="" style="endArrow=block;html=1;entryX=0.642;entryY=1;entryDx=0;entryDy=0;entryPerimeter=0;startArrow=oval;startFill=1;endFill=1;" edge="1" parent="1" target="86">
                    <mxGeometry width="50" height="50" relative="1" as="geometry">
                        <mxPoint x="740" y="1310" as="sourcePoint"/>
                        <mxPoint x="740" y="1210" as="targetPoint"/>
                    </mxGeometry>
                </mxCell>
            </root>
        </mxGraphModel>
    </diagram>
</mxfile>